<svg width="1066" height="1073" viewBox="0 0 1066 1073" fill="none" xmlns="http://www.w3.org/2000/svg">
<path d="M160.176 916.815C265.119 1022.4 392.155 1072.41 535.76 1072.41C684.89 1072.41 806.402 1022.4 911.345 916.815C1005.24 822.348 1060.47 705.653 1066 572.287L0 572.287C16.5699 705.653 66.2796 822.348 160.176 916.815Z" fill="#146EBE"/>
<path d="M0 500.122H215.409C220.932 427.882 254.072 361.199 303.782 311.187C364.538 250.061 441.864 216.72 530.237 216.72C618.61 216.72 695.936 250.061 756.693 311.187C811.926 366.756 839.542 427.882 850.589 500.122H1066C1060.47 366.756 1005.24 255.618 911.345 155.594C806.402 50.0124 679.366 0 535.76 0C386.631 0 265.119 50.0124 160.176 155.594C60.7563 255.618 11.0466 366.756 0 500.122Z" fill="#146EBE"/>
</svg>
