<svg xmlns="http://www.w3.org/2000/svg" width="1066" height="1066" viewBox="0 0 1066 1066" fill="none">
    <path d="M160.176 910.466C265.119 1016.01 392.155 1066 535.76 1066C684.89 1066 806.402 1016.01 911.345 910.466C1005.24 816.035 1060.47 699.385 1066 566.07L0 566.07C16.5699 699.385 66.2796 816.035 160.176 910.466Z" fill="#146EBE"/>
    <path d="M0 499.93H215.409C220.932 427.718 254.072 361.061 303.782 311.068C364.538 249.965 441.864 216.636 530.237 216.636C618.61 216.636 695.936 249.965 756.693 311.068C811.926 366.616 839.542 427.718 850.589 499.93H1066C1060.47 366.615 1005.24 255.52 911.345 155.534C806.402 49.9932 679.366 0 535.76 0C386.631 0 265.119 49.9932 160.176 155.534C60.7563 255.52 11.0466 366.615 0 499.93Z" fill="#146EBE"/>
</svg>