<svg width="1066" height="537" viewBox="0 0 1066 537" fill="none" xmlns="http://www.w3.org/2000/svg">
<mask id="mask0_237_4378" style="mask-type:alpha" maskUnits="userSpaceOnUse" x="0" y="0" width="1066" height="537">
<rect width="1066" height="536.788" fill="url(#paint0_linear_237_4378)"/>
</mask>
<g mask="url(#mask0_237_4378)">
<path d="M160.176 917.087C265.119 1022.67 392.155 1072.68 535.76 1072.68C684.89 1072.68 806.402 1022.67 911.345 917.087C1005.24 822.62 1060.47 705.925 1066 572.559L0 572.559C16.5699 705.925 66.2796 822.62 160.176 917.087Z" fill="#146EBE"/>
<path d="M0 500.394H215.409C220.932 428.154 254.072 361.472 303.782 311.459C364.538 250.333 441.864 216.992 530.237 216.992C618.61 216.992 695.936 250.333 756.693 311.459C811.926 367.028 839.542 428.154 850.589 500.394H1066C1060.47 367.028 1005.24 255.89 911.345 155.866C806.402 50.2844 679.366 0.272079 535.76 0.272079C386.631 0.272079 265.119 50.2844 160.176 155.866C60.7563 255.89 11.0466 367.028 0 500.394Z" fill="#146EBE"/>
</g>
<defs>
<linearGradient id="paint0_linear_237_4378" x1="533" y1="0" x2="533" y2="536.296" gradientUnits="userSpaceOnUse">
<stop stop-color="#323234"/>
<stop offset="1" stop-color="#323234" stop-opacity="0"/>
</linearGradient>
</defs>
</svg>
