<svg width="66" height="66" viewBox="0 0 66 66" fill="none" xmlns="http://www.w3.org/2000/svg">
<g clip-path="url(#clip0_237_3753)">
<path d="M31.7 52.2901C31.7 47.75 31.7 43.206 31.7 33C31.7 22.794 31.7 18.25 31.7 13.7099V0.5C14.3667 1.18764 0.5 15.4471 0.5 33C0.5 50.5529 14.3667 64.8124 31.7 65.5V52.2901Z" fill="#146EBE"/>
<path d="M34.3 0.5V13.7099C44.3028 14.4699 52.2112 22.794 52.2112 33C52.2112 43.206 44.3028 51.5663 34.3 52.2901V65.5C51.6334 64.8124 65.5 50.5529 65.5 33C65.5 15.4471 51.6334 1.18764 34.3 0.5Z" fill="#ECECEC"/>
</g>
<defs>
<clipPath id="clip0_237_3753">
<rect width="65" height="65" fill="white" transform="translate(0.5 0.5)"/>
</clipPath>
</defs>
</svg>
