<svg width="131" height="34" viewBox="0 0 131 34" fill="none" xmlns="http://www.w3.org/2000/svg">
<g filter="url(#filter0_b_240_7201)">
<rect x="0.0500488" y="0.326263" width="130" height="33.6017" rx="16.8008" fill="#323234" fill-opacity="0.5"/>
<path d="M22.2928 23.3873H21.1311V20.7412H22.2928C23.0027 20.7412 23.6481 20.483 24.1644 19.9667C24.6808 19.4504 24.9389 18.805 24.9389 18.0951V10.9312H27.585V18.0951C27.585 19.5795 27.0687 20.8057 26.0361 21.8384C25.0035 22.871 23.7127 23.3873 22.2928 23.3873Z" fill="#ECECEC"/>
<path d="M39.073 21.9029H32.6836L31.9737 23.3873H29.0049L34.8779 10.9313H36.8141L42.6872 23.3873H39.7829L39.073 21.9029ZM37.7822 19.2568L35.846 15.0618L33.9099 19.2568H37.7822Z" fill="#ECECEC"/>
<path d="M54.5624 21.3866C53.3361 22.7419 51.7872 23.3873 49.9801 23.3873C48.2375 23.3873 46.7531 22.8065 45.5914 21.5802C44.3652 20.354 43.7198 18.8696 43.7198 17.1916C43.7198 15.449 44.3652 13.9646 45.5269 12.7384C46.7531 11.5121 48.2375 10.9313 49.9801 10.9313C51.7226 10.9313 53.1425 11.5121 54.3687 12.7384L52.6262 14.4809C51.9163 13.771 51.0127 13.3838 49.9801 13.3838C48.9475 13.3838 48.0439 13.771 47.334 14.4809C46.624 15.1909 46.2368 16.0944 46.2368 17.127C46.2368 18.1597 46.624 19.0632 47.334 19.7731C48.0439 20.4831 48.9475 20.8703 49.9801 20.8703C50.7546 20.8703 51.4645 20.6767 52.1099 20.2249V18.4178H49.851V15.9008H54.6269V21.3866H54.5624Z" fill="#ECECEC"/>
<path d="M73.0851 23.3873V10.9313H78.1837C79.9263 10.9313 81.3462 11.5121 82.5724 12.7384C83.7986 13.9646 84.3795 15.449 84.3795 17.127C84.3795 18.8696 83.7986 20.354 82.5724 21.5157C81.3462 22.7419 79.8618 23.3228 78.1837 23.3228H73.0851V23.3873ZM75.7312 13.5774V20.7412H78.1837C79.1518 20.7412 79.9908 20.4185 80.7008 19.7086C81.4107 18.9987 81.7334 18.1597 81.7334 17.127C81.7334 16.1589 81.4107 15.3199 80.7008 14.61C79.9908 13.9001 79.1518 13.5774 78.1837 13.5774H75.7312Z" fill="#ECECEC"/>
<path d="M90.059 16.0299V23.3873H87.4128V10.9313H89.6072L94.9639 18.2887V10.9313H97.61V23.3873H95.4157L90.059 16.0299Z" fill="#ECECEC"/>
<path d="M108.969 10.9313V13.5774H103.289V15.8363H107.807V18.4824H103.289V20.7412H108.969V23.3873H100.643V10.9313H108.969Z" fill="#ECECEC"/>
<path d="M64.2432 10.9313V13.4483C65.0822 13.5128 65.8566 13.9001 66.4375 14.4809C67.1474 15.1909 67.5347 16.0944 67.5347 17.127C67.5347 18.1597 67.1474 19.0632 66.4375 19.7731C65.7921 20.4185 65.0822 20.7412 64.2432 20.8703V23.3873C65.7921 23.3228 67.0829 22.6774 68.2446 21.5802C69.4708 20.354 70.0517 18.8696 70.0517 17.1916C70.0517 15.449 69.4708 14.0292 68.2446 12.8029C67.0829 11.6412 65.7921 11.0604 64.2432 10.9313Z" fill="#ECECEC"/>
<path d="M59.4028 12.7384C58.1766 13.9646 57.5957 15.449 57.5957 17.127C57.5957 18.8696 58.1766 20.2894 59.4028 21.5157C60.5 22.6129 61.8553 23.2583 63.4042 23.3228V10.8667C61.8553 11.0603 60.5 11.6412 59.4028 12.7384Z" fill="#ECECEC"/>
</g>
<defs>
<filter id="filter0_b_240_7201" x="-20.8114" y="-20.5352" width="171.723" height="75.3247" filterUnits="userSpaceOnUse" color-interpolation-filters="sRGB">
<feFlood flood-opacity="0" result="BackgroundImageFix"/>
<feGaussianBlur in="BackgroundImageFix" stdDeviation="10.4307"/>
<feComposite in2="SourceAlpha" operator="in" result="effect1_backgroundBlur_240_7201"/>
<feBlend mode="normal" in="SourceGraphic" in2="effect1_backgroundBlur_240_7201" result="shape"/>
</filter>
</defs>
</svg>
