<svg width="168" height="20" viewBox="0 0 168 20" fill="none" xmlns="http://www.w3.org/2000/svg">
<path d="M17.1558 13.987H16.2068L13.8278 7.045H15.0368L16.7268 12.362L18.6768 7.045H19.4828L21.4978 12.362L23.1228 7.045H24.3318L22.0048 13.987H21.0558L19.0798 8.657L17.1558 13.987ZM31.771 10.399C31.771 10.4943 31.758 10.698 31.732 11.01H26.155C26.259 11.6427 26.519 12.1453 26.935 12.518C27.351 12.8907 27.923 13.077 28.651 13.077C29.0583 13.077 29.483 13.0033 29.925 12.856C30.3756 12.7087 30.77 12.518 31.108 12.284L31.602 13.181C31.2466 13.4583 30.8003 13.6923 30.263 13.883C29.7256 14.065 29.1796 14.156 28.625 14.156C27.793 14.156 27.091 13.974 26.519 13.61C25.947 13.246 25.5396 12.7997 25.297 12.271C25.0543 11.7337 24.933 11.1443 24.933 10.503C24.933 9.45433 25.258 8.58767 25.908 7.903C26.558 7.21833 27.3986 6.876 28.43 6.876C29.4093 6.876 30.211 7.19233 30.835 7.825C31.459 8.45767 31.771 9.31567 31.771 10.399ZM29.899 8.488C29.509 8.11533 29.0193 7.929 28.43 7.929C27.8406 7.929 27.338 8.11967 26.922 8.501C26.506 8.87367 26.2503 9.36333 26.155 9.97H30.549C30.5143 9.35467 30.2976 8.86067 29.899 8.488ZM36.9368 6.876C37.9248 6.876 38.7482 7.23133 39.4068 7.942C40.0742 8.66133 40.4078 9.52367 40.4078 10.529C40.4078 11.5343 40.0742 12.3967 39.4068 13.116C38.7395 13.818 37.9118 14.169 36.9238 14.169C35.8925 14.169 35.0648 13.7703 34.4408 12.973V14H33.2838V4.159H34.4408V8.111C35.0822 7.28767 35.9142 6.876 36.9368 6.876ZM36.8068 13.077C37.5262 13.077 38.1068 12.83 38.5488 12.336C38.9995 11.8507 39.2248 11.244 39.2248 10.516C39.2248 9.788 38.9995 9.18567 38.5488 8.709C38.1068 8.215 37.5262 7.968 36.8068 7.968C36.0788 7.968 35.4938 8.215 35.0518 8.709C34.6098 9.203 34.3888 9.80533 34.3888 10.516C34.3888 11.2353 34.6098 11.842 35.0518 12.336C35.4938 12.83 36.0788 13.077 36.8068 13.077ZM48.807 6.876C49.795 6.876 50.6183 7.23133 51.277 7.942C51.9443 8.66133 52.278 9.52367 52.278 10.529C52.278 11.5343 51.9443 12.3967 51.277 13.116C50.6096 13.818 49.782 14.169 48.794 14.169C47.7626 14.169 46.935 13.7703 46.311 12.973V14H45.154V4.159H46.311V8.111C46.9523 7.28767 47.7843 6.876 48.807 6.876ZM48.677 13.077C49.3963 13.077 49.977 12.83 50.419 12.336C50.8696 11.8507 51.095 11.244 51.095 10.516C51.095 9.788 50.8696 9.18567 50.419 8.709C49.977 8.215 49.3963 7.968 48.677 7.968C47.949 7.968 47.364 8.215 46.922 8.709C46.48 9.203 46.259 9.80533 46.259 10.516C46.259 11.2353 46.48 11.842 46.922 12.336C47.364 12.83 47.949 13.077 48.677 13.077ZM56.2759 12.375L58.1869 7.045H59.4739L56.5359 14.845C56.2585 15.5903 55.9292 16.1277 55.5479 16.457C55.1752 16.7863 54.7245 16.951 54.1959 16.951C53.7539 16.951 53.3942 16.8643 53.1169 16.691L53.2469 15.664C53.5589 15.8027 53.8405 15.872 54.0919 15.872C54.6725 15.872 55.1319 15.4603 55.4699 14.637L55.7429 13.961L52.7269 7.045H54.0659L56.2759 12.375Z" fill="#ECECEC"/>
<path d="M86.4155 11.8751L80.0408 5.50037L73.6661 11.8751L75.4178 13.6214L80.0408 8.99842L84.6691 13.6214L86.4155 11.8751Z" fill="#ECECEC"/>
<path d="M74.797 7.24999L73.047 5.5L66.672 11.875L68.422 13.625L74.797 7.24999Z" fill="#ECECEC"/>
<path d="M95.2826 12.2829V6.54761H96.4888V12.2829H95.2826ZM93.1068 9.97694V8.86536H98.6765V9.97694H93.1068Z" fill="#ECECEC"/>
<path d="M105.942 14.2821V5.83978H107.824V14.2821H105.942ZM111.024 14.2821L108.569 10.6803H110.634L113.203 14.2821H111.024ZM107.319 11.598V10.1183H109.384C109.659 10.1183 109.896 10.0648 110.095 9.9577C110.301 9.84299 110.458 9.68623 110.565 9.48741C110.68 9.28094 110.737 9.04388 110.737 8.77623C110.737 8.50859 110.68 8.27535 110.565 8.07653C110.458 7.87006 110.301 7.7133 110.095 7.60624C109.896 7.49153 109.659 7.43418 109.384 7.43418H107.319V5.83978H109.234C109.93 5.83978 110.534 5.94684 111.047 6.16095C111.559 6.36742 111.953 6.67713 112.228 7.09007C112.504 7.503 112.641 8.023 112.641 8.65006V8.83359C112.641 9.45299 112.5 9.96917 112.217 10.3821C111.941 10.7874 111.548 11.0933 111.035 11.2997C110.531 11.4986 109.93 11.598 109.234 11.598H107.319Z" fill="#ECECEC"/>
<path d="M114.344 14.2821V5.9086H116.225V14.2821H114.344Z" fill="#ECECEC"/>
<path d="M122.144 14.5C121.387 14.5 120.726 14.37 120.16 14.11C119.602 13.8424 119.139 13.4944 118.772 13.0662C118.405 12.6303 118.13 12.16 117.946 11.6553C117.77 11.1506 117.682 10.665 117.682 10.1986V9.94623C117.682 9.42623 117.774 8.91388 117.958 8.40918C118.149 7.89683 118.432 7.43418 118.807 7.02124C119.181 6.6083 119.648 6.27948 120.206 6.03478C120.764 5.78243 121.41 5.65625 122.144 5.65625C122.879 5.65625 123.525 5.78243 124.083 6.03478C124.641 6.27948 125.108 6.6083 125.482 7.02124C125.857 7.43418 126.14 7.89683 126.331 8.40918C126.522 8.91388 126.618 9.42623 126.618 9.94623V10.1986C126.618 10.665 126.526 11.1506 126.343 11.6553C126.159 12.16 125.884 12.6303 125.517 13.0662C125.15 13.4944 124.683 13.8424 124.117 14.11C123.559 14.37 122.902 14.5 122.144 14.5ZM122.144 12.745C122.542 12.745 122.898 12.6762 123.211 12.5386C123.532 12.4009 123.804 12.2097 124.026 11.965C124.255 11.7203 124.427 11.4374 124.542 11.1162C124.657 10.795 124.714 10.4509 124.714 10.0839C124.714 9.69387 124.653 9.33829 124.53 9.01711C124.416 8.68829 124.244 8.40535 124.014 8.16829C123.792 7.92359 123.525 7.73624 123.211 7.60624C122.898 7.47624 122.542 7.41124 122.144 7.41124C121.747 7.41124 121.391 7.47624 121.078 7.60624C120.764 7.73624 120.493 7.92359 120.263 8.16829C120.042 8.40535 119.873 8.68829 119.759 9.01711C119.644 9.33829 119.587 9.69387 119.587 10.0839C119.587 10.4509 119.644 10.795 119.759 11.1162C119.873 11.4374 120.042 11.7203 120.263 11.965C120.493 12.2097 120.764 12.4009 121.078 12.5386C121.391 12.6762 121.747 12.745 122.144 12.745Z" fill="#ECECEC"/>
<path d="M129.482 14.2821V7.31948H131.364V14.2821H129.482ZM127.131 7.54889V5.9086H133.727V7.54889H127.131Z" fill="#ECECEC"/>
<path d="M138.529 14.5C137.771 14.5 137.121 14.37 136.579 14.11C136.036 13.8424 135.592 13.4944 135.248 13.0662C134.904 12.6303 134.648 12.1639 134.479 11.6668C134.319 11.1621 134.239 10.6727 134.239 10.1986V9.94623C134.239 9.42623 134.323 8.91388 134.491 8.40918C134.659 7.89683 134.915 7.43418 135.259 7.02124C135.611 6.6083 136.051 6.27948 136.579 6.03478C137.114 5.78243 137.745 5.65625 138.471 5.65625C139.228 5.65625 139.897 5.79772 140.479 6.08066C141.06 6.3636 141.522 6.75742 141.866 7.26212C142.218 7.75918 142.425 8.34418 142.486 9.01711H140.593C140.54 8.68064 140.417 8.39388 140.226 8.15682C140.035 7.91977 139.786 7.73624 139.481 7.60624C139.182 7.47624 138.846 7.41124 138.471 7.41124C138.096 7.41124 137.764 7.47624 137.473 7.60624C137.183 7.73624 136.938 7.91977 136.739 8.15682C136.548 8.39388 136.399 8.67682 136.292 9.00564C136.192 9.32682 136.143 9.68623 136.143 10.0839C136.143 10.4739 136.192 10.8333 136.292 11.1621C136.399 11.4833 136.552 11.7662 136.751 12.0109C136.957 12.248 137.209 12.4315 137.508 12.5615C137.806 12.6839 138.146 12.745 138.529 12.745C139.11 12.745 139.599 12.6036 139.997 12.3206C140.402 12.0377 140.647 11.6477 140.731 11.1506H142.612C142.543 11.7624 142.337 12.3244 141.993 12.8368C141.656 13.3415 141.194 13.7468 140.605 14.0527C140.024 14.3509 139.331 14.5 138.529 14.5Z" fill="#ECECEC"/>
<path d="M147.875 14.5C147.118 14.5 146.456 14.37 145.89 14.11C145.332 13.8424 144.869 13.4944 144.502 13.0662C144.135 12.6303 143.86 12.16 143.677 11.6553C143.501 11.1506 143.413 10.665 143.413 10.1986V9.94623C143.413 9.42623 143.504 8.91388 143.688 8.40918C143.879 7.89683 144.162 7.43418 144.537 7.02124C144.912 6.6083 145.378 6.27948 145.936 6.03478C146.494 5.78243 147.141 5.65625 147.875 5.65625C148.609 5.65625 149.255 5.78243 149.813 6.03478C150.372 6.27948 150.838 6.6083 151.213 7.02124C151.587 7.43418 151.87 7.89683 152.062 8.40918C152.253 8.91388 152.348 9.42623 152.348 9.94623V10.1986C152.348 10.665 152.257 11.1506 152.073 11.6553C151.889 12.16 151.614 12.6303 151.247 13.0662C150.88 13.4944 150.414 13.8424 149.848 14.11C149.289 14.37 148.632 14.5 147.875 14.5ZM147.875 12.745C148.272 12.745 148.628 12.6762 148.942 12.5386C149.263 12.4009 149.534 12.2097 149.756 11.965C149.985 11.7203 150.157 11.4374 150.272 11.1162C150.387 10.795 150.444 10.4509 150.444 10.0839C150.444 9.69387 150.383 9.33829 150.261 9.01711C150.146 8.68829 149.974 8.40535 149.744 8.16829C149.523 7.92359 149.255 7.73624 148.942 7.60624C148.628 7.47624 148.272 7.41124 147.875 7.41124C147.477 7.41124 147.122 7.47624 146.808 7.60624C146.494 7.73624 146.223 7.92359 145.994 8.16829C145.772 8.40535 145.604 8.68829 145.489 9.01711C145.374 9.33829 145.317 9.69387 145.317 10.0839C145.317 10.4509 145.374 10.795 145.489 11.1162C145.604 11.4374 145.772 11.7203 145.994 11.965C146.223 12.2097 146.494 12.4009 146.808 12.5386C147.122 12.6762 147.477 12.745 147.875 12.745Z" fill="#ECECEC"/>
<path d="M155.425 14.328V12.573H156.985C157.375 12.573 157.727 12.5156 158.041 12.4009C158.354 12.2786 158.622 12.1103 158.844 11.8962C159.065 11.6745 159.234 11.4106 159.348 11.1047C159.463 10.7912 159.52 10.4471 159.52 10.0724C159.52 9.6824 159.463 9.33447 159.348 9.02858C159.234 8.7227 159.065 8.4627 158.844 8.24859C158.622 8.03447 158.354 7.87389 158.041 7.76683C157.727 7.65212 157.375 7.59477 156.985 7.59477H155.425V5.83978H156.882C157.639 5.83978 158.301 5.95066 158.866 6.17242C159.432 6.39419 159.906 6.69624 160.289 7.0786C160.671 7.46095 160.954 7.90065 161.138 8.39771C161.329 8.88711 161.424 9.40329 161.424 9.94623V10.1986C161.424 10.7033 161.329 11.2042 161.138 11.7012C160.954 12.1906 160.671 12.6342 160.289 13.0318C159.906 13.4218 159.432 13.7353 158.866 13.9724C158.301 14.2094 157.639 14.328 156.882 14.328H155.425ZM153.774 14.328V5.83978H155.655V14.328H153.774Z" fill="#ECECEC"/>
<path d="M162.735 14.2821V5.9086H164.57V14.2821H162.735ZM164.341 14.2821V12.7221H168V14.2821H164.341ZM164.341 10.8065V9.24652H167.736V10.8065H164.341ZM164.341 7.46859V5.9086H167.92V7.46859H164.341Z" fill="#ECECEC"/>
</svg>
