<svg width="280" height="141" viewBox="0 0 280 141" fill="none" xmlns="http://www.w3.org/2000/svg">
<path d="M157.579 113.379L159.058 118.308L160.701 113.379H162.18L163.659 118.308L165.138 113.379H166.288L164.152 119.623H162.837L161.358 114.529L159.715 119.623H158.401L156.429 113.379H157.579Z" fill="#ECECEC"/>
<path d="M167.927 113.379L169.406 118.308L171.049 113.379H172.528L174.007 118.308L175.486 113.379H176.636L174.5 119.623H173.185L171.707 114.529L170.063 119.623H168.749L166.777 113.379H167.927Z" fill="#ECECEC"/>
<path d="M178.119 113.379L179.598 118.308L181.241 113.379H182.72L184.199 118.308L185.678 113.379H186.828L184.692 119.623H183.378L181.899 114.529L180.256 119.623H178.941L176.969 113.379H178.119Z" fill="#ECECEC"/>
<path d="M187.982 117.981H189.296V119.46H187.982V117.981Z" fill="#ECECEC"/>
<path d="M190.61 113.379H191.76V112.065L192.91 111.736V113.379H194.225V114.201H192.91V117.98C192.91 117.98 192.91 118.145 192.91 118.309C192.91 118.473 192.91 118.473 193.075 118.637L193.239 118.802C193.403 118.802 193.568 118.966 193.732 118.966C193.896 118.966 193.896 118.966 194.061 118.966C194.225 118.966 194.225 118.966 194.225 118.966V119.788C194.061 119.788 194.061 119.788 193.896 119.788C193.732 119.788 193.568 119.788 193.403 119.788C192.91 119.788 192.417 119.623 192.253 119.459C191.924 119.295 191.924 118.966 191.924 118.473V114.365H190.61V113.379Z" fill="#ECECEC"/>
<path d="M196.688 113.379V117.322C196.688 117.487 196.688 117.651 196.688 117.815C196.688 117.98 196.852 118.144 196.852 118.308C197.017 118.473 197.017 118.473 197.181 118.637C197.345 118.801 197.51 118.801 197.838 118.801C198.167 118.801 198.331 118.801 198.66 118.637C198.988 118.473 199.153 118.308 199.317 118.144C199.481 117.98 199.481 117.815 199.481 117.487C199.481 117.322 199.481 117.158 199.481 116.994V113.379H200.632V118.308V118.473C200.632 118.637 200.632 118.637 200.632 118.801C200.632 118.966 200.632 118.966 200.632 119.13C200.632 119.294 200.632 119.294 200.632 119.458H199.481V118.473C199.481 118.637 199.317 118.637 199.317 118.801C199.153 118.966 199.153 119.13 198.988 119.13C198.824 119.294 198.66 119.294 198.495 119.458C198.331 119.458 198.002 119.623 197.674 119.623C197.345 119.623 197.017 119.623 196.688 119.458C196.359 119.294 196.195 119.294 196.031 118.966C195.866 118.801 195.702 118.637 195.538 118.308C195.373 117.98 195.373 117.815 195.373 117.487V113.379H196.688Z" fill="#ECECEC"/>
<path d="M202.277 113.379H203.592L205.564 118.308L207.536 113.379H208.85L206.221 119.623H205.071L202.277 113.379Z" fill="#ECECEC"/>
<path d="M209.997 117.981H211.312V119.46H209.997V117.981Z" fill="#ECECEC"/>
<path d="M216.899 115.351C216.899 115.351 216.899 115.186 216.899 115.022C216.899 114.858 216.899 114.693 216.735 114.529C216.735 114.365 216.57 114.2 216.406 114.2C216.242 114.036 216.078 114.036 215.749 114.036C215.42 114.036 215.092 114.2 214.763 114.365C214.599 114.529 214.434 114.858 214.27 115.022C214.106 115.351 214.106 115.515 214.106 115.843C214.106 116.172 214.106 116.336 214.106 116.336C214.106 116.665 214.106 116.994 214.106 117.322C214.106 117.651 214.27 117.815 214.27 118.144C214.434 118.308 214.599 118.637 214.763 118.637C214.927 118.801 215.256 118.801 215.585 118.801C215.749 118.801 216.078 118.801 216.242 118.637C216.406 118.637 216.57 118.473 216.57 118.308C216.735 118.144 216.735 117.98 216.735 117.815C216.735 117.651 216.735 117.487 216.899 117.322H218.049C218.049 117.651 217.885 117.98 217.885 118.144C217.721 118.473 217.556 118.637 217.392 118.801C217.228 118.966 216.899 119.13 216.57 119.294C216.242 119.458 215.913 119.458 215.585 119.458C215.42 119.458 215.42 119.458 215.256 119.458C215.092 119.458 214.927 119.458 214.763 119.294C214.599 119.294 214.434 119.13 214.27 119.13C214.106 118.966 213.941 118.801 213.777 118.637C213.613 118.473 213.613 118.473 213.448 118.308C213.284 118.144 213.284 117.98 213.284 117.815C213.284 117.651 213.12 117.487 213.12 117.158C213.12 116.829 213.12 116.665 213.12 116.336C213.12 115.679 213.284 115.186 213.448 114.693C213.613 114.2 213.777 113.872 214.106 113.707C214.434 113.379 214.763 113.214 215.092 113.214C215.42 113.05 215.749 113.05 216.078 113.05C216.242 113.05 216.242 113.05 216.406 113.05C216.57 113.05 216.735 113.05 216.899 113.214C217.063 113.214 217.228 113.379 217.392 113.379C217.556 113.543 217.721 113.543 217.885 113.707C218.049 114.036 218.214 114.2 218.378 114.529C218.378 114.693 218.378 115.022 218.542 115.186H216.899V115.351Z" fill="#ECECEC"/>
<path d="M219.202 116.501C219.202 116.172 219.202 115.679 219.366 115.351C219.53 115.022 219.695 114.529 219.859 114.2C220.023 113.872 220.352 113.543 220.845 113.379C221.174 113.214 221.831 113.05 222.324 113.05C222.981 113.05 223.474 113.214 223.803 113.379C224.131 113.543 224.46 113.872 224.789 114.2C224.953 114.529 225.117 114.858 225.282 115.186C225.282 115.515 225.446 115.843 225.446 116.172C225.446 116.665 225.446 116.994 225.282 117.487C225.117 117.815 224.953 118.308 224.624 118.473C224.296 118.801 223.967 118.966 223.638 119.13C223.31 119.294 222.817 119.458 222.324 119.458C221.831 119.458 221.338 119.294 221.009 119.13C220.681 118.966 220.352 118.801 220.023 118.473C219.695 118.144 219.53 117.815 219.53 117.487C219.202 117.322 219.202 116.994 219.202 116.501ZM220.352 116.501C220.352 116.829 220.352 117.158 220.516 117.487C220.516 117.815 220.681 117.98 220.845 118.308C221.009 118.473 221.174 118.637 221.502 118.801C221.667 118.966 221.995 118.966 222.324 118.966C222.488 118.966 222.817 118.966 222.981 118.801C223.145 118.637 223.474 118.637 223.638 118.308C223.803 118.144 223.967 117.815 224.131 117.487C224.296 117.158 224.296 116.829 224.296 116.336C224.296 115.515 224.131 115.022 223.803 114.529C223.474 114.2 222.981 113.872 222.488 113.872C222.324 113.872 222.159 113.872 221.831 114.036C221.667 114.036 221.338 114.2 221.174 114.365C221.009 114.529 220.845 114.858 220.681 115.022C220.352 115.515 220.352 116.008 220.352 116.501Z" fill="#ECECEC"/>
<path d="M227.086 114.2V113.379H228.236V114.2C228.4 114.036 228.565 113.707 228.729 113.543C228.893 113.379 229.058 113.379 229.222 113.214C229.386 113.214 229.551 113.05 229.715 113.05C229.879 113.05 230.044 113.05 230.208 113.05C230.537 113.05 230.865 113.05 231.03 113.214C231.194 113.214 231.523 113.379 231.687 113.543C231.851 113.707 232.016 113.707 232.016 113.872C232.18 114.036 232.18 114.2 232.18 114.2C232.18 114.2 232.344 114.036 232.344 113.872C232.508 113.707 232.508 113.543 232.673 113.543C232.837 113.379 233.001 113.379 233.33 113.214C233.494 113.05 233.823 113.05 234.152 113.05C234.316 113.05 234.645 113.05 234.809 113.214C235.138 113.214 235.302 113.379 235.631 113.543C235.795 113.707 236.123 113.872 236.123 114.2C236.288 114.529 236.288 114.858 236.288 115.351V119.458H235.138V115.515C235.138 115.186 235.138 115.022 235.138 114.858C235.138 114.693 234.973 114.693 234.973 114.529C234.809 114.365 234.645 114.2 234.48 114.2C234.316 114.036 233.987 114.036 233.823 114.036C233.659 114.036 233.494 114.036 233.33 114.036C233.166 114.036 233.001 114.2 233.001 114.2C232.837 114.2 232.837 114.365 232.673 114.365L232.508 114.529C232.508 114.693 232.344 114.693 232.344 114.858C232.344 115.022 232.344 115.186 232.344 115.186C232.344 115.351 232.344 115.515 232.344 115.515C232.344 115.679 232.344 115.679 232.344 115.843V119.294H231.194V115.186C231.194 114.858 231.03 114.529 230.865 114.2C230.701 113.872 230.372 113.872 229.879 113.872C229.715 113.872 229.551 113.872 229.386 113.872C229.222 113.872 229.058 114.036 229.058 114.036C228.893 114.036 228.893 114.2 228.729 114.2L228.565 114.365C228.401 114.529 228.4 114.693 228.4 115.022C228.4 115.186 228.4 115.515 228.4 115.679V119.13H227.25V114.2H227.086Z" fill="#ECECEC"/>
<path d="M157.25 124.554H158.565V133.428H157.25V124.554Z" fill="#ECECEC"/>
<path d="M160.7 124.554H163.329C163.657 124.554 163.986 124.554 164.315 124.554C164.643 124.554 164.972 124.554 165.3 124.718C165.629 124.718 165.958 124.883 166.286 125.047C166.615 125.211 166.779 125.376 167.108 125.704C167.437 126.197 167.765 126.69 167.93 127.347C168.094 128.005 168.258 128.498 168.258 129.155C168.258 129.648 168.258 130.141 168.094 130.469C167.93 130.798 167.93 131.127 167.765 131.455C167.601 131.784 167.437 131.948 167.272 132.277C167.108 132.441 166.944 132.606 166.779 132.77C166.615 132.934 166.286 133.099 166.122 133.263C165.958 133.427 165.629 133.427 165.3 133.427C164.972 133.427 164.807 133.427 164.479 133.427C164.15 133.427 163.822 133.427 163.493 133.427H161.028V124.554H160.7ZM162.014 132.441H163.164C163.657 132.441 163.986 132.441 164.479 132.441C164.972 132.441 165.3 132.277 165.465 132.113C165.793 131.948 165.958 131.62 166.122 131.455C166.286 131.127 166.451 130.962 166.451 130.634C166.451 130.305 166.615 130.141 166.615 129.812C166.615 129.648 166.615 129.484 166.615 129.319C166.615 129.319 166.615 129.155 166.615 128.826C166.615 128.662 166.615 128.333 166.451 128.169C166.451 127.84 166.286 127.676 166.122 127.347C165.958 127.019 165.793 126.854 165.629 126.526C165.3 126.197 164.972 126.033 164.643 125.869C164.315 125.704 163.822 125.704 163.329 125.704H161.85V132.441H162.014Z" fill="#ECECEC"/>
<path d="M177.299 131.456C177.299 131.784 177.463 132.113 177.628 132.442C177.792 132.606 178.121 132.77 178.613 132.77C179.106 132.77 179.435 132.606 179.764 132.442C180.092 132.277 180.257 131.949 180.257 131.456C180.421 131.127 180.421 130.634 180.421 130.306C180.421 129.977 180.421 129.484 180.421 129.155C180.257 129.32 180.257 129.484 180.092 129.648C179.928 129.813 179.764 129.813 179.599 129.977C179.435 129.977 179.271 130.141 179.106 130.141C178.942 130.141 178.778 130.141 178.613 130.141C178.285 130.141 177.956 130.141 177.628 129.977C177.299 129.813 176.97 129.648 176.806 129.484C176.642 129.32 176.313 128.991 176.313 128.662C176.149 128.334 176.149 128.005 176.149 127.512C176.149 127.019 176.149 126.526 176.313 126.198C176.477 125.869 176.642 125.54 176.97 125.376C177.299 125.212 177.463 125.047 177.792 124.883C178.121 124.719 178.449 124.719 178.778 124.719C178.942 124.719 179.271 124.719 179.599 124.883C179.928 124.883 180.092 125.047 180.421 125.212C180.75 125.376 180.914 125.54 181.078 125.869C181.243 126.198 181.407 126.526 181.571 126.855C181.571 127.184 181.736 127.348 181.736 127.841C181.736 128.169 181.736 128.662 181.736 129.155C181.736 129.32 181.736 129.648 181.736 129.977C181.736 130.306 181.736 130.634 181.571 130.963C181.571 131.292 181.407 131.62 181.243 131.949C181.078 132.277 180.914 132.606 180.75 132.77C180.585 133.099 180.257 133.263 179.928 133.428C179.599 133.592 179.106 133.756 178.613 133.756C178.285 133.756 177.956 133.756 177.792 133.592C177.463 133.592 177.299 133.428 176.97 133.263C176.642 133.099 176.477 132.935 176.313 132.606C176.149 132.277 176.149 131.949 175.984 131.456H177.299ZM180.257 127.512C180.257 127.184 180.257 127.019 180.092 126.691C179.928 126.526 179.928 126.198 179.764 126.033C179.599 125.869 179.435 125.705 179.271 125.705C179.106 125.705 178.942 125.54 178.613 125.54C178.449 125.54 178.121 125.54 177.956 125.705C177.792 125.869 177.628 125.869 177.463 126.033C177.299 126.198 177.299 126.362 177.135 126.691C177.135 126.855 176.97 127.184 176.97 127.348C176.97 127.841 177.135 128.334 177.463 128.662C177.792 128.991 178.121 129.155 178.613 129.155C179.106 129.155 179.435 128.991 179.764 128.662C180.092 128.498 180.257 128.169 180.257 127.512Z" fill="#ECECEC"/>
<path d="M182.726 129.32C182.726 129.155 182.726 128.827 182.726 128.498C182.726 128.169 182.726 127.841 182.89 127.512C182.89 127.184 183.054 126.855 183.219 126.526C183.383 126.198 183.547 125.869 183.712 125.705C183.876 125.376 184.205 125.212 184.533 125.047C184.862 124.883 185.191 124.719 185.683 124.719C186.176 124.719 186.505 124.719 186.834 124.883C187.162 125.047 187.327 125.212 187.655 125.376C187.82 125.54 187.984 125.869 188.148 126.198C188.313 126.526 188.313 126.855 188.477 127.184C188.477 127.512 188.641 127.841 188.641 128.169C188.641 128.498 188.641 128.827 188.641 128.991C188.641 129.977 188.477 130.799 188.313 131.456C188.148 132.113 187.82 132.606 187.491 132.935C187.327 133.099 187.162 133.263 186.998 133.263C186.834 133.428 186.669 133.428 186.505 133.428C186.341 133.428 186.176 133.428 186.012 133.592C185.848 133.592 185.848 133.592 185.683 133.592C185.355 133.592 185.191 133.592 184.862 133.428C184.698 133.428 184.369 133.263 184.205 133.099C184.04 132.935 183.876 132.77 183.712 132.606C183.547 132.442 183.383 132.277 183.383 132.113C183.219 131.784 183.054 131.456 183.054 130.963C182.89 130.634 182.726 130.141 182.726 129.32ZM184.04 129.32C184.04 129.813 184.04 130.306 184.04 130.634C184.04 130.963 184.205 131.456 184.369 131.784C184.533 132.113 184.698 132.277 184.862 132.442C185.026 132.606 185.355 132.77 185.683 132.77C186.012 132.77 186.341 132.606 186.505 132.442C186.669 132.277 186.834 131.949 186.998 131.62C187.162 131.292 187.162 130.963 187.162 130.47C187.162 130.141 187.162 129.648 187.162 129.32C187.162 128.827 187.162 128.334 187.162 127.841C187.162 127.348 186.998 127.019 186.834 126.691C186.669 126.362 186.505 126.198 186.341 126.033C186.176 125.869 185.848 125.705 185.519 125.705C185.191 125.705 184.862 125.869 184.698 126.033C184.533 126.198 184.369 126.526 184.205 126.855C184.04 127.184 184.04 127.512 184.04 128.005C184.04 128.498 184.04 128.827 184.04 129.32Z" fill="#ECECEC"/>
<path d="M189.624 129.32C189.624 129.155 189.624 128.827 189.624 128.498C189.624 128.169 189.624 127.841 189.789 127.512C189.789 127.184 189.953 126.855 190.117 126.526C190.282 126.198 190.446 125.869 190.61 125.705C190.775 125.376 191.103 125.212 191.432 125.047C191.761 124.883 192.089 124.719 192.582 124.719C193.075 124.719 193.404 124.719 193.732 124.883C194.061 125.047 194.225 125.212 194.554 125.376C194.718 125.54 194.883 125.869 195.047 126.198C195.211 126.526 195.211 126.855 195.376 127.184C195.376 127.512 195.54 127.841 195.54 128.169C195.54 128.498 195.54 128.827 195.54 128.991C195.54 129.977 195.376 130.799 195.211 131.456C195.047 132.113 194.718 132.606 194.39 132.935C194.225 133.099 194.061 133.263 193.897 133.263C193.732 133.428 193.568 133.428 193.404 133.428C193.239 133.428 193.075 133.428 192.911 133.592C192.746 133.592 192.746 133.592 192.582 133.592C192.253 133.592 192.089 133.592 191.761 133.428C191.596 133.428 191.268 133.263 191.103 133.099C190.939 132.935 190.775 132.77 190.61 132.606C190.446 132.442 190.282 132.277 190.282 132.113C190.117 131.784 189.953 131.456 189.953 130.963C189.624 130.634 189.624 130.141 189.624 129.32ZM190.775 129.32C190.775 129.813 190.775 130.306 190.775 130.634C190.775 130.963 190.939 131.456 191.103 131.784C191.268 132.113 191.432 132.277 191.596 132.442C191.761 132.606 192.089 132.77 192.418 132.77C192.746 132.77 193.075 132.606 193.239 132.442C193.404 132.277 193.568 131.949 193.732 131.62C193.897 131.292 193.897 130.963 193.897 130.47C193.897 130.141 193.897 129.648 193.897 129.32C193.897 128.827 193.897 128.334 193.897 127.841C193.897 127.348 193.732 127.019 193.568 126.691C193.404 126.362 193.239 126.198 193.075 126.033C192.911 125.869 192.582 125.705 192.253 125.705C191.925 125.705 191.596 125.869 191.432 126.033C191.268 126.198 191.103 126.526 190.939 126.855C190.775 127.184 190.775 127.512 190.775 128.005C190.775 128.498 190.775 128.827 190.775 129.32Z" fill="#ECECEC"/>
<path d="M196.523 129.32C196.523 129.155 196.523 128.827 196.523 128.498C196.523 128.169 196.523 127.841 196.687 127.512C196.687 127.184 196.852 126.855 197.016 126.526C197.18 126.198 197.345 125.869 197.509 125.705C197.673 125.376 198.002 125.212 198.331 125.047C198.659 124.883 198.988 124.719 199.481 124.719C199.974 124.719 200.302 124.719 200.631 124.883C200.96 125.047 201.124 125.212 201.453 125.376C201.617 125.54 201.781 125.869 201.946 126.198C202.11 126.526 202.11 126.855 202.274 127.184C202.274 127.512 202.439 127.841 202.439 128.169C202.439 128.498 202.439 128.827 202.439 128.991C202.439 129.977 202.274 130.799 202.11 131.456C201.946 132.113 201.617 132.606 201.288 132.935C201.124 133.099 200.96 133.263 200.795 133.263C200.631 133.428 200.467 133.428 200.302 133.428C200.138 133.428 199.974 133.428 199.81 133.592C199.645 133.592 199.645 133.592 199.481 133.592C199.152 133.592 198.988 133.592 198.659 133.428C198.495 133.428 198.166 133.263 198.002 133.099C197.838 132.935 197.673 132.77 197.509 132.606C197.345 132.442 197.18 132.277 197.18 132.113C197.016 131.784 196.852 131.456 196.852 130.963C196.523 130.634 196.523 130.141 196.523 129.32ZM197.673 129.32C197.673 129.813 197.673 130.306 197.673 130.634C197.673 130.963 197.838 131.456 198.002 131.784C198.166 132.113 198.331 132.277 198.495 132.442C198.659 132.606 198.988 132.77 199.317 132.77C199.645 132.77 199.974 132.606 200.138 132.442C200.302 132.277 200.467 131.949 200.631 131.62C200.795 131.292 200.795 130.963 200.795 130.47C200.795 130.141 200.795 129.648 200.795 129.32C200.795 128.827 200.795 128.334 200.795 127.841C200.795 127.348 200.631 127.019 200.467 126.691C200.302 126.362 200.138 126.198 199.974 126.033C199.81 125.869 199.481 125.705 199.152 125.705C198.824 125.705 198.495 125.869 198.331 126.033C198.166 126.198 198.002 126.526 197.838 126.855C197.673 127.184 197.673 127.512 197.673 128.005C197.673 128.498 197.673 128.827 197.673 129.32Z" fill="#ECECEC"/>
<path d="M203.262 129.32C203.262 129.155 203.262 128.827 203.262 128.498C203.262 128.169 203.262 127.841 203.426 127.512C203.426 127.184 203.591 126.855 203.755 126.526C203.919 126.198 204.084 125.869 204.248 125.705C204.412 125.376 204.741 125.212 205.069 125.047C205.398 124.883 205.727 124.719 206.22 124.719C206.713 124.719 207.041 124.719 207.37 124.883C207.699 125.047 207.863 125.212 208.192 125.376C208.356 125.54 208.52 125.869 208.685 126.198C208.849 126.526 208.849 126.855 209.013 127.184C209.013 127.512 209.177 127.841 209.177 128.169C209.177 128.498 209.177 128.827 209.177 128.991C209.177 129.977 209.013 130.799 208.849 131.456C208.685 132.113 208.356 132.606 208.027 132.935C207.863 133.099 207.699 133.263 207.534 133.263C207.37 133.428 207.206 133.428 207.041 133.428C206.877 133.428 206.713 133.428 206.548 133.592C206.384 133.592 206.384 133.592 206.22 133.592C205.891 133.592 205.727 133.592 205.398 133.428C205.234 133.428 204.905 133.263 204.741 133.099C204.577 132.935 204.412 132.77 204.248 132.606C204.084 132.442 203.919 132.277 203.919 132.113C203.755 131.784 203.591 131.456 203.591 130.963C203.426 130.634 203.262 130.141 203.262 129.32ZM204.577 129.32C204.577 129.813 204.577 130.306 204.577 130.634C204.577 130.963 204.741 131.456 204.905 131.784C205.069 132.113 205.234 132.277 205.398 132.442C205.562 132.606 205.891 132.77 206.22 132.77C206.548 132.77 206.877 132.606 207.041 132.442C207.206 132.277 207.37 131.949 207.534 131.62C207.699 131.292 207.699 130.963 207.699 130.47C207.699 130.141 207.699 129.648 207.699 129.32C207.699 128.827 207.699 128.334 207.699 127.841C207.699 127.348 207.534 127.019 207.37 126.691C207.206 126.362 207.041 126.198 206.877 126.033C206.713 125.869 206.384 125.705 206.055 125.705C205.727 125.705 205.398 125.869 205.234 126.033C205.069 126.198 204.905 126.526 204.741 126.855C204.577 127.184 204.577 127.512 204.577 128.005C204.577 128.498 204.577 128.827 204.577 129.32Z" fill="#ECECEC"/>
<path d="M212.955 126.362C212.791 126.526 212.627 126.526 212.463 126.691C212.298 126.855 212.134 126.855 211.97 127.019C211.805 127.184 211.641 127.184 211.477 127.348C211.312 127.512 211.148 127.512 210.984 127.676V126.362C211.312 126.198 211.805 125.869 212.134 125.705C212.463 125.54 212.791 125.212 213.12 125.047H214.27V133.592H213.12V126.362H212.955Z" fill="#ECECEC"/>
<path d="M217.063 129.32C217.063 129.155 217.063 128.827 217.063 128.498C217.063 128.169 217.063 127.841 217.227 127.512C217.227 127.184 217.391 126.855 217.556 126.526C217.72 126.198 217.884 125.869 218.049 125.705C218.213 125.376 218.541 125.212 218.87 125.047C219.199 124.883 219.527 124.719 220.02 124.719C220.513 124.719 220.842 124.719 221.171 124.883C221.499 125.047 221.664 125.212 221.992 125.376C222.157 125.54 222.321 125.869 222.485 126.198C222.649 126.526 222.649 126.855 222.814 127.184C222.814 127.512 222.978 127.841 222.978 128.169C222.978 128.498 222.978 128.827 222.978 128.991C222.978 129.977 222.814 130.799 222.649 131.456C222.485 132.113 222.157 132.606 221.828 132.935C221.664 133.099 221.499 133.263 221.335 133.263C221.171 133.428 221.006 133.428 220.842 133.428C220.678 133.428 220.513 133.428 220.349 133.592C220.185 133.592 220.185 133.592 220.02 133.592C219.692 133.592 219.527 133.592 219.199 133.428C219.034 133.428 218.706 133.263 218.541 133.099C218.377 132.935 218.213 132.77 218.049 132.606C217.884 132.442 217.72 132.277 217.72 132.113C217.556 131.784 217.391 131.456 217.391 130.963C217.063 130.634 217.063 130.141 217.063 129.32ZM218.213 129.32C218.213 129.813 218.213 130.306 218.213 130.634C218.213 130.963 218.377 131.456 218.541 131.784C218.706 132.113 218.87 132.277 219.034 132.442C219.199 132.606 219.527 132.77 219.856 132.77C220.185 132.77 220.513 132.606 220.678 132.442C220.842 132.277 221.006 131.949 221.171 131.62C221.335 131.292 221.335 130.963 221.335 130.47C221.335 130.141 221.335 129.648 221.335 129.32C221.335 128.827 221.335 128.334 221.335 127.841C221.335 127.348 221.171 127.019 221.006 126.691C220.842 126.362 220.678 126.198 220.513 126.033C220.349 125.869 220.02 125.705 219.692 125.705C219.363 125.705 219.034 125.869 218.87 126.033C218.706 126.198 218.541 126.526 218.377 126.855C218.213 127.184 218.213 127.512 218.213 128.005C218.213 128.498 218.213 128.827 218.213 129.32Z" fill="#ECECEC"/>
<path d="M225.28 131.456C225.28 131.784 225.444 132.113 225.608 132.442C225.773 132.606 226.101 132.77 226.594 132.77C227.087 132.77 227.416 132.606 227.744 132.442C228.073 132.277 228.237 131.949 228.237 131.456C228.402 131.127 228.402 130.634 228.402 130.306C228.402 129.977 228.402 129.484 228.402 129.155C228.237 129.32 228.237 129.484 228.073 129.648C227.909 129.813 227.744 129.813 227.58 129.977C227.416 129.977 227.251 130.141 227.087 130.141C226.923 130.141 226.759 130.141 226.594 130.141C226.266 130.141 225.937 130.141 225.608 129.977C225.28 129.813 224.951 129.648 224.787 129.484C224.622 129.32 224.294 128.991 224.294 128.662C224.129 128.334 224.129 128.005 224.129 127.512C224.129 127.019 224.129 126.526 224.294 126.198C224.458 125.869 224.622 125.54 224.951 125.376C225.28 125.212 225.444 125.047 225.773 124.883C226.101 124.719 226.43 124.719 226.759 124.719C226.923 124.719 227.251 124.719 227.58 124.883C227.909 124.883 228.073 125.047 228.402 125.212C228.73 125.376 228.895 125.54 229.059 125.869C229.223 126.198 229.388 126.526 229.552 126.855C229.552 127.184 229.716 127.348 229.716 127.841C229.716 128.169 229.716 128.662 229.716 129.155C229.716 129.32 229.716 129.648 229.716 129.977C229.716 130.306 229.716 130.634 229.552 130.963C229.552 131.292 229.388 131.62 229.223 131.949C229.059 132.277 228.895 132.606 228.73 132.77C228.566 133.099 228.237 133.263 227.909 133.428C227.58 133.592 227.087 133.756 226.594 133.756C226.266 133.756 225.937 133.756 225.773 133.592C225.444 133.592 225.28 133.428 224.951 133.263C224.622 133.099 224.458 132.935 224.294 132.606C224.129 132.277 224.129 131.949 223.965 131.456H225.28ZM228.237 127.512C228.237 127.184 228.237 127.019 228.073 126.691C227.909 126.526 227.909 126.198 227.744 126.033C227.58 125.869 227.416 125.705 227.251 125.705C227.087 125.705 226.923 125.54 226.594 125.54C226.266 125.54 226.101 125.54 225.937 125.705C225.773 125.869 225.608 125.869 225.444 126.033C225.28 126.198 225.28 126.362 225.115 126.691C225.115 126.855 224.951 127.184 224.951 127.348C224.951 127.841 225.115 128.334 225.444 128.662C225.773 128.991 226.101 129.155 226.594 129.155C227.087 129.155 227.416 128.991 227.744 128.662C228.073 128.498 228.237 128.169 228.237 127.512Z" fill="#ECECEC"/>
<path d="M232.178 131.456C232.178 131.62 232.178 131.784 232.343 131.949C232.507 132.113 232.507 132.277 232.671 132.277C232.836 132.442 233 132.442 233.164 132.442C233.329 132.442 233.493 132.442 233.657 132.442C233.986 132.442 234.315 132.442 234.479 132.277C234.643 132.113 234.808 131.949 234.972 131.784C235.136 131.62 235.136 131.292 235.136 131.127C235.136 130.963 235.136 130.799 235.136 130.634C235.136 129.977 234.972 129.648 234.643 129.32C234.315 128.991 233.986 128.827 233.493 128.827C233.164 128.827 233 128.827 232.836 128.991C232.671 129.155 232.507 129.155 232.343 129.32C232.178 129.484 232.178 129.648 232.014 129.648C232.014 129.813 231.85 129.813 231.85 129.977H230.7L230.864 124.883H235.629V125.869H231.85L231.686 128.662C231.686 128.662 231.85 128.498 232.014 128.498C232.178 128.334 232.178 128.334 232.343 128.169C232.507 128.169 232.671 128.005 232.836 128.005C233 128.005 233.329 127.841 233.493 127.841C233.986 127.841 234.315 127.841 234.643 128.005C234.972 128.169 235.301 128.334 235.465 128.662C235.629 128.991 235.793 129.155 235.958 129.484C236.122 129.813 236.122 130.141 236.122 130.47C236.122 130.963 236.122 131.292 235.958 131.62C235.793 131.949 235.629 132.277 235.301 132.606C234.972 132.935 234.643 133.099 234.315 133.263C233.986 133.428 233.493 133.428 233 133.428C232.671 133.428 232.343 133.428 232.014 133.263C231.686 133.099 231.521 133.099 231.193 132.77C231.028 132.606 230.7 132.277 230.7 132.113C230.535 131.784 230.535 131.456 230.535 131.127H232.178V131.456Z" fill="#ECECEC"/>
<path d="M237.605 129.32C237.605 129.155 237.605 128.827 237.605 128.498C237.605 128.169 237.605 127.841 237.769 127.512C237.769 127.184 237.934 126.855 238.098 126.526C238.262 126.198 238.427 125.869 238.591 125.705C238.755 125.376 239.084 125.212 239.412 125.047C239.741 124.883 240.07 124.719 240.563 124.719C241.056 124.719 241.384 124.719 241.713 124.883C242.042 125.047 242.206 125.212 242.535 125.376C242.863 125.54 242.863 125.869 243.027 126.198C243.192 126.526 243.192 126.855 243.356 127.184C243.356 127.512 243.52 127.841 243.52 128.169C243.52 128.498 243.52 128.827 243.52 128.991C243.52 129.977 243.356 130.799 243.192 131.456C243.028 132.113 242.699 132.606 242.37 132.935C242.206 133.099 242.042 133.263 241.877 133.263C241.713 133.428 241.549 133.428 241.384 133.428C241.22 133.428 241.056 133.428 240.891 133.592C240.727 133.592 240.727 133.592 240.563 133.592C240.234 133.592 240.07 133.592 239.741 133.428C239.577 133.428 239.248 133.263 239.084 133.099C238.92 132.935 238.755 132.77 238.591 132.606C238.427 132.442 238.262 132.277 238.262 132.113C238.098 131.784 237.934 131.456 237.934 130.963C237.605 130.634 237.605 130.141 237.605 129.32ZM238.755 129.32C238.755 129.813 238.755 130.306 238.755 130.634C238.755 130.963 238.92 131.456 239.084 131.784C239.248 132.113 239.412 132.277 239.577 132.442C239.741 132.606 240.07 132.77 240.398 132.77C240.727 132.77 241.056 132.606 241.22 132.442C241.384 132.277 241.549 131.949 241.713 131.62C241.877 131.292 241.877 130.963 241.877 130.47C241.877 130.141 241.877 129.648 241.877 129.32C241.877 128.827 241.877 128.334 241.877 127.841C241.877 127.348 241.713 127.019 241.549 126.691C241.384 126.362 241.22 126.198 241.056 126.033C240.891 125.869 240.563 125.705 240.234 125.705C239.905 125.705 239.577 125.869 239.412 126.033C239.248 126.198 239.084 126.526 238.92 126.855C238.755 127.184 238.755 127.512 238.755 128.005C238.755 128.498 238.755 128.827 238.755 129.32Z" fill="#ECECEC"/>
<path d="M157.743 7.55737H164.48V8.87193H159.386V12.3226H164.151V13.6372H159.386V18.7311H157.743V7.55737Z" fill="#ECECEC"/>
<path d="M171.056 18.8962C171.056 18.7318 170.892 18.5675 170.892 18.2389C170.892 18.0746 170.892 17.9102 170.892 17.5816C170.728 17.9102 170.563 18.2389 170.235 18.4032C170.071 18.5675 169.742 18.7318 169.578 18.8962C169.413 19.0605 169.085 19.0605 168.92 19.0605C168.756 19.0605 168.592 19.0605 168.427 19.0605C167.934 19.0605 167.606 19.0605 167.277 18.8962C166.948 18.7318 166.62 18.5675 166.455 18.4032C166.291 18.2389 166.127 17.9102 165.963 17.7459C165.798 17.4173 165.798 17.0886 165.798 16.76C165.798 16.5957 165.798 16.4314 165.798 16.267C165.798 16.1027 165.963 15.9384 165.963 15.6098C166.127 15.4454 166.127 15.2811 166.455 14.9525C166.62 14.7882 166.784 14.6239 167.113 14.4595C167.277 14.2952 167.606 14.2952 167.77 14.1309C168.099 14.1309 168.263 13.9666 168.592 13.9666C168.92 13.9666 169.085 13.9666 169.249 13.9666C169.413 13.9666 169.742 13.9666 169.742 13.9666C169.906 13.9666 170.071 13.9666 170.235 13.9666C170.399 13.9666 170.563 13.9666 170.728 13.9666C170.728 13.8023 170.728 13.4736 170.728 13.3093C170.728 13.145 170.728 12.9807 170.728 12.8163C170.728 12.652 170.728 12.4877 170.728 12.4877C170.728 12.3234 170.563 12.3234 170.563 12.1591C170.399 11.9947 170.235 11.8304 169.906 11.8304C169.578 11.8304 169.413 11.6661 169.249 11.6661C168.92 11.6661 168.592 11.6661 168.427 11.8304C168.263 11.9947 168.099 11.9947 167.934 12.1591C167.77 12.3234 167.77 12.4877 167.77 12.652C167.77 12.8163 167.77 12.9807 167.77 12.9807H166.291C166.291 12.8163 166.291 12.4877 166.455 12.3234C166.455 11.9947 166.62 11.8304 166.948 11.5018C167.113 11.3375 167.277 11.1731 167.441 11.0088C167.606 10.8445 167.934 10.8445 168.099 10.6802C168.263 10.6802 168.592 10.5159 168.756 10.5159C168.92 10.5159 169.249 10.5159 169.413 10.5159C169.742 10.5159 169.906 10.5159 170.235 10.5159C170.563 10.5159 170.728 10.6802 171.056 10.6802C171.385 10.8445 171.549 10.8445 171.714 11.0088C171.878 11.1731 172.042 11.3375 172.207 11.5018C172.371 11.6661 172.371 11.9947 172.371 12.1591C172.371 12.3234 172.371 12.4877 172.371 12.652V16.4314C172.371 16.4314 172.371 16.5957 172.371 16.76C172.371 16.9243 172.371 17.0886 172.371 17.253C172.371 17.4173 172.371 17.5816 172.371 17.9102C172.371 18.0746 172.371 18.4032 172.371 18.5675H171.056V18.8962ZM170.892 15.1168C170.728 15.1168 170.563 15.1168 170.563 15.1168C170.399 15.1168 170.235 15.1168 170.071 15.1168C169.906 15.1168 169.742 15.1168 169.413 15.1168C169.085 15.1168 168.756 15.1168 168.427 15.2811C168.099 15.4454 167.77 15.6098 167.606 15.7741C167.441 15.9384 167.277 16.267 167.277 16.76C167.277 16.9243 167.277 17.0886 167.277 17.253C167.277 17.4173 167.441 17.5816 167.606 17.7459C167.77 17.9102 167.934 18.0746 168.099 18.0746C168.263 18.2389 168.592 18.2389 168.92 18.2389C169.742 18.2389 170.235 17.9102 170.563 17.4173C170.728 17.253 170.728 17.0886 170.728 17.0886C170.728 16.9243 170.728 16.76 170.892 16.5957C170.892 16.4314 170.892 16.267 170.892 16.1027C170.892 15.6098 170.892 15.2811 170.892 15.1168Z" fill="#ECECEC"/>
<path d="M179.436 13.6382C179.436 13.4738 179.436 13.4738 179.436 13.1452C179.436 12.9809 179.271 12.8166 179.271 12.6522C179.107 12.4879 178.943 12.3236 178.778 12.1593C178.614 11.995 178.285 11.995 177.957 11.995C177.464 11.995 177.135 12.1593 176.806 12.3236C176.478 12.6522 176.313 12.8166 176.149 13.1452C175.985 13.4738 175.985 13.8025 175.985 14.1311C175.985 14.4598 175.985 14.6241 175.985 14.7884C175.985 15.117 175.985 15.61 176.149 15.9386C176.149 16.2673 176.313 16.5959 176.478 16.9245C176.642 17.2532 176.806 17.4175 177.135 17.5818C177.464 17.7461 177.628 17.9105 178.121 17.9105C178.45 17.9105 178.778 17.9105 178.943 17.7461C179.107 17.5818 179.271 17.5818 179.436 17.4175C179.6 17.2532 179.6 17.0889 179.764 16.9245C179.764 16.7602 179.928 16.5959 179.928 16.2673H181.407C181.407 16.5959 181.243 17.0889 181.079 17.4175C180.914 17.7461 180.75 18.0748 180.421 18.2391C180.093 18.5677 179.764 18.7321 179.436 18.8964C179.107 19.0607 178.614 19.0607 178.121 19.0607C177.957 19.0607 177.792 19.0607 177.628 19.0607C177.464 19.0607 177.135 19.0607 176.971 18.8964C176.806 18.8964 176.478 18.7321 176.313 18.5677C176.149 18.4034 175.821 18.2391 175.656 18.0748C175.492 17.9105 175.492 17.7461 175.328 17.5818C175.163 17.4175 175.163 17.2532 174.999 16.9245C174.835 16.7602 174.835 16.4316 174.835 16.1029C174.835 15.7743 174.835 15.4457 174.835 14.9527C174.835 14.1311 174.999 13.4738 175.163 12.9809C175.328 12.4879 175.656 11.995 175.985 11.6663C176.313 11.3377 176.642 11.1734 177.135 11.009C177.628 10.8447 177.957 10.8447 178.285 10.8447C178.45 10.8447 178.614 10.8447 178.778 10.8447C178.943 10.8447 179.271 10.8447 179.436 11.009C179.6 11.009 179.928 11.1734 180.093 11.3377C180.257 11.502 180.586 11.6663 180.75 11.8306C181.079 12.1593 181.243 12.4879 181.243 12.8166C181.243 13.1452 181.407 13.3095 181.407 13.6382H179.436Z" fill="#ECECEC"/>
<path d="M181.57 11.0072H182.884V9.36405L184.363 8.87109V11.0072H186.171V12.1575H184.363V16.9227C184.363 17.0871 184.363 17.0871 184.363 17.2514C184.363 17.4157 184.363 17.4157 184.528 17.58C184.528 17.7443 184.692 17.7443 184.856 17.9087C185.021 17.9087 185.185 18.073 185.513 18.073C185.678 18.073 185.842 18.073 186.006 18.073C186.171 18.073 186.171 18.073 186.335 18.073V19.2232C186.171 19.2232 186.006 19.2232 185.842 19.2232C185.678 19.2232 185.349 19.2232 185.185 19.2232C184.528 19.2232 184.035 19.0589 183.706 18.8946C183.377 18.7302 183.213 18.2373 183.213 17.58V12.1575H181.898V11.0072H181.57Z" fill="#ECECEC"/>
<path d="M187.325 15.1143C187.325 14.6214 187.325 14.1284 187.489 13.6355C187.653 13.1425 187.818 12.6495 188.146 12.3209C188.475 11.9923 188.804 11.6636 189.297 11.335C189.79 11.0063 190.447 11.0063 191.268 11.0063C192.09 11.0063 192.747 11.1707 193.24 11.4993C193.733 11.8279 194.062 12.1566 194.391 12.4852C194.719 12.8139 194.884 13.3068 195.048 13.7998C195.212 14.2927 195.212 14.7857 195.212 15.1143C195.212 15.6073 195.212 16.2646 195.048 16.7575C194.884 17.2505 194.719 17.7434 194.391 18.0721C194.062 18.4007 193.569 18.7294 193.076 19.058C192.583 19.2223 191.926 19.3866 191.268 19.3866C190.611 19.3866 190.118 19.2223 189.625 19.058C189.132 18.8937 188.804 18.565 188.475 18.2364C188.146 17.9078 187.982 17.4148 187.818 16.9218C187.489 16.1002 187.325 15.6073 187.325 15.1143ZM188.968 14.95C188.968 15.2786 188.968 15.7716 189.132 16.1002C189.297 16.4289 189.297 16.7575 189.625 17.0862C189.79 17.4148 190.118 17.5791 190.283 17.7434C190.611 17.9078 190.94 18.0721 191.433 18.0721C191.761 18.0721 191.926 18.0721 192.254 17.9078C192.583 17.7434 192.747 17.5791 193.076 17.4148C193.24 17.2505 193.405 16.9218 193.569 16.4289C193.733 16.1002 193.733 15.6073 193.733 14.95C193.733 13.9641 193.569 13.3068 193.076 12.6495C192.583 12.1566 192.09 11.8279 191.433 11.8279C191.268 11.8279 190.94 11.8279 190.611 11.9923C190.283 12.1566 190.118 12.1566 189.79 12.4852C189.461 12.6495 189.297 12.9782 189.132 13.4711C188.968 13.7998 188.968 14.2927 188.968 14.95Z" fill="#ECECEC"/>
<path d="M197.509 12.6496C197.509 12.3209 197.509 12.1566 197.509 11.828C197.509 11.4993 197.509 11.335 197.509 11.0064H198.988V12.4852C198.988 12.1566 199.152 11.9923 199.316 11.828C199.481 11.6636 199.645 11.4993 199.809 11.335C199.973 11.1707 200.138 11.1707 200.302 11.0064C200.466 11.0064 200.631 10.842 200.795 10.842C200.959 10.842 201.124 10.842 201.452 10.842C201.617 10.842 201.781 10.842 201.945 10.842V12.3209C201.945 12.3209 201.781 12.3209 201.617 12.3209H201.452H201.288C200.795 12.3209 200.466 12.3209 200.138 12.4852C199.809 12.6496 199.645 12.8139 199.481 12.9782C199.316 13.1425 199.152 13.4711 199.152 13.7998C199.152 14.1284 198.988 14.4571 198.988 14.7857V18.8937H197.509V12.6496Z" fill="#ECECEC"/>
<path d="M207.042 18.8959L205.891 21.8536H204.413L205.563 18.8959L202.276 11.0085H203.92L206.384 17.2527L208.849 11.0085H210.492L207.042 18.8959Z" fill="#ECECEC"/>
<path d="M157.585 24.812H161.364C161.693 24.812 162.022 24.812 162.35 24.812C162.679 24.812 162.843 24.812 163.172 24.9763C163.5 24.9763 163.665 25.1406 163.829 25.305C163.993 25.4693 164.322 25.6336 164.486 25.7979C164.815 26.1266 164.979 26.4552 165.144 26.7838C165.308 27.1125 165.308 27.6054 165.308 27.9341C165.308 28.7557 164.979 29.5773 164.486 30.0702C164.322 30.2345 164.158 30.3989 163.993 30.3989C163.829 30.5632 163.665 30.5632 163.336 30.7275C163.007 30.8918 162.679 30.8918 162.35 30.8918C162.022 30.8918 161.529 30.8918 161.036 30.8918H159.228V35.8214H157.585V24.812ZM159.228 29.9059H161.036C161.364 29.9059 161.529 29.9059 161.857 29.9059C162.186 29.9059 162.515 29.7416 162.679 29.7416C163.007 29.5773 163.172 29.413 163.336 29.0843C163.5 28.7557 163.665 28.427 163.665 27.9341C163.665 27.4411 163.665 27.1125 163.5 26.9482C163.336 26.7838 163.172 26.4552 162.843 26.4552C162.679 26.2909 162.35 26.2909 162.022 26.2909C161.693 26.2909 161.529 26.2909 161.364 26.2909H159.228V29.9059Z" fill="#ECECEC"/>
<path d="M167.276 29.9044C167.276 29.5758 167.276 29.4115 167.276 29.0828C167.276 28.7542 167.276 28.5899 167.276 28.2612H168.754V29.7401C168.754 29.4115 168.919 29.2472 169.083 29.0828C169.247 28.9185 169.412 28.7542 169.576 28.5899C169.74 28.4256 169.905 28.4256 170.069 28.2612C170.233 28.2612 170.398 28.0969 170.562 28.0969C170.726 28.0969 170.891 28.0969 171.219 28.0969C171.384 28.0969 171.548 28.0969 171.712 28.0969V29.5758C171.712 29.5758 171.548 29.5758 171.384 29.5758H171.219H171.055C170.562 29.5758 170.233 29.5758 169.905 29.7401C169.576 29.9044 169.412 30.0688 169.247 30.2331C169.083 30.3974 168.919 30.726 168.919 31.0547C168.919 31.3833 168.754 31.7119 168.754 32.0406V36.1486H167.276V29.9044Z" fill="#ECECEC"/>
<path d="M172.701 32.3714C172.701 31.8785 172.701 31.3855 172.865 30.8925C173.029 30.3996 173.194 29.9066 173.522 29.578C173.851 29.2493 174.18 28.9207 174.672 28.5921C175.165 28.2634 175.823 28.2634 176.644 28.2634C177.466 28.2634 178.123 28.4277 178.616 28.7564C179.109 29.085 179.438 29.4137 179.766 29.7423C180.095 30.0709 180.259 30.5639 180.424 31.0569C180.588 31.5498 180.588 32.0428 180.588 32.3714C180.588 32.8644 180.588 33.5216 180.424 34.0146C180.259 34.5076 180.095 35.0005 179.766 35.3292C179.438 35.6578 178.945 35.9864 178.452 36.3151C177.959 36.4794 177.302 36.6437 176.644 36.6437C175.987 36.6437 175.494 36.4794 175.001 36.3151C174.508 36.1508 174.18 35.8221 173.851 35.4935C173.522 35.1648 173.358 34.6719 173.194 34.1789C172.701 33.3573 172.701 32.8644 172.701 32.3714ZM174.179 32.2071C174.179 32.5357 174.179 33.0287 174.344 33.3573C174.508 33.686 174.508 34.0146 174.837 34.3432C175.001 34.6719 175.33 34.8362 175.494 35.0005C175.823 35.1648 176.151 35.3292 176.644 35.3292C176.973 35.3292 177.137 35.3292 177.466 35.1648C177.795 35.0005 177.959 34.8362 178.287 34.6719C178.452 34.5076 178.616 34.1789 178.78 33.686C178.945 33.3573 178.945 32.8644 178.945 32.2071C178.945 31.2212 178.78 30.5639 178.287 29.9066C177.795 29.4137 177.302 29.085 176.644 29.085C176.48 29.085 176.151 29.085 175.823 29.2493C175.494 29.4137 175.33 29.4137 175.001 29.7423C174.672 29.9066 174.508 30.2353 174.344 30.7282C174.179 31.0569 174.179 31.5498 174.179 32.2071Z" fill="#ECECEC"/>
<path d="M188.146 24.8118H189.624V34.8352V34.9996C189.624 35.1639 189.624 35.1639 189.624 35.3282C189.624 35.4925 189.624 35.4925 189.624 35.6568C189.624 35.8212 189.624 35.8212 189.624 35.9855H188.146V34.6709C188.146 34.8352 187.981 34.8352 187.981 34.9996C187.817 35.1639 187.653 35.3282 187.488 35.4925C187.16 35.6568 186.831 35.8212 186.502 35.9855C186.174 36.1498 185.845 36.1498 185.516 36.1498C185.188 36.1498 184.859 36.1498 184.531 35.9855C184.202 35.8212 183.709 35.6568 183.38 35.4925C183.052 35.1639 182.723 34.8352 182.394 34.3423C182.066 33.8493 182.066 33.192 182.066 32.2061C182.066 31.3845 182.23 30.8916 182.394 30.2343C182.559 29.7413 182.887 29.2484 183.216 28.9197C183.545 28.5911 183.873 28.2625 184.366 28.0982C184.859 27.9338 185.188 27.7695 185.681 27.7695C186.174 27.7695 186.502 27.7695 186.667 27.9338C186.995 28.0982 187.16 28.0982 187.324 28.2625C187.488 28.4268 187.653 28.5911 187.817 28.7554C187.981 28.9197 187.981 29.0841 187.981 29.0841V24.8118H188.146ZM188.146 32.0418C188.146 31.5489 188.146 31.0559 187.981 30.7273C187.817 30.3986 187.653 30.07 187.488 29.9057C187.324 29.7413 187.16 29.577 186.831 29.4127C186.502 29.2484 186.174 29.2484 185.845 29.2484C185.516 29.2484 185.188 29.2484 184.859 29.4127C184.695 29.577 184.366 29.7413 184.202 29.9057C184.038 30.07 183.873 30.3986 183.873 30.5629C183.709 30.7273 183.709 31.0559 183.709 31.2202C183.709 31.3845 183.709 31.7132 183.709 31.8775C183.709 32.0418 183.709 32.2061 183.709 32.3705C183.709 32.6991 183.709 33.0277 183.873 33.3564C183.873 33.685 184.038 34.0136 184.202 34.3423C184.366 34.6709 184.531 34.8352 184.859 34.9996C185.188 35.1639 185.516 35.3282 186.009 35.3282C186.502 35.3282 186.995 35.1639 187.324 34.9996C187.653 34.6709 187.817 34.3423 187.981 34.0136C188.146 33.685 188.146 33.3564 188.31 33.0277C188.146 32.5348 188.146 32.2061 188.146 32.0418Z" fill="#ECECEC"/>
<path d="M193.571 28.2612V33.3551C193.571 33.5194 193.571 33.6838 193.571 34.0124C193.571 34.1767 193.735 34.341 193.735 34.5054C193.899 34.6697 194.064 34.834 194.228 34.9983C194.392 35.1626 194.721 35.1626 195.05 35.1626C195.378 35.1626 195.707 35.1626 196.036 34.9983C196.364 34.834 196.693 34.6697 196.857 34.341C197.021 34.1767 197.186 33.8481 197.186 33.5194C197.186 33.1908 197.186 33.0265 197.186 32.8622V28.4255H198.665V34.834V34.9983C198.665 35.1626 198.665 35.1626 198.665 35.327C198.665 35.4913 198.665 35.6556 198.665 35.8199C198.665 35.9842 198.665 36.1486 198.665 36.1486H197.186V34.834C197.186 34.9983 197.021 35.1626 196.857 35.327C196.693 35.4913 196.528 35.6556 196.364 35.8199C196.2 35.9842 195.871 36.1486 195.707 36.1486C195.378 36.3129 195.05 36.3129 194.721 36.3129C194.228 36.3129 193.735 36.3129 193.406 36.1486C193.078 35.9842 192.749 35.8199 192.585 35.6556C192.42 35.4913 192.256 35.1626 192.092 34.834C191.928 34.5054 191.928 34.1767 191.928 33.6838V28.4255H193.571V28.2612Z" fill="#ECECEC"/>
<path d="M206.222 30.8913C206.222 30.727 206.222 30.727 206.222 30.3984C206.222 30.2341 206.057 30.0697 206.057 29.9054C205.893 29.7411 205.729 29.5768 205.564 29.4125C205.4 29.2481 205.071 29.2481 204.743 29.2481C204.25 29.2481 203.921 29.4125 203.593 29.5768C203.264 29.9054 203.1 30.0697 202.935 30.3984C202.771 30.727 202.771 31.0556 202.771 31.3843C202.771 31.7129 202.771 31.8772 202.771 32.0416C202.771 32.3702 202.771 32.8632 202.935 33.1918C202.935 33.5204 203.1 33.8491 203.264 34.1777C203.428 34.5064 203.593 34.6707 203.921 34.835C204.25 34.9993 204.414 35.1636 204.907 35.1636C205.236 35.1636 205.4 35.1636 205.729 34.9993C205.893 34.835 206.057 34.835 206.222 34.6707C206.386 34.5064 206.386 34.342 206.55 34.1777C206.55 34.0134 206.715 33.8491 206.715 33.5204H208.194C208.194 33.8491 208.029 34.342 207.865 34.6707C207.701 34.9993 207.536 35.3279 207.208 35.4923C206.879 35.8209 206.55 35.9852 206.222 36.1495C205.893 36.3139 205.4 36.3139 204.907 36.3139C204.743 36.3139 204.579 36.3139 204.414 36.3139C204.25 36.3139 203.921 36.3139 203.757 36.1495C203.593 36.1495 203.264 35.9852 203.1 35.8209C202.935 35.6566 202.607 35.4923 202.442 35.3279C202.278 35.1636 202.278 34.9993 202.114 34.835C201.949 34.6707 201.949 34.5064 201.785 34.1777C201.621 34.0134 201.621 33.6848 201.621 33.3561C201.621 33.0275 201.621 32.6988 201.621 32.2059C201.621 31.3843 201.785 30.727 201.949 30.234C202.114 29.7411 202.442 29.2481 202.771 28.9195C203.1 28.5909 203.428 28.4265 203.921 28.2622C204.414 28.0979 204.743 28.0979 205.072 28.0979C205.236 28.0979 205.4 28.0979 205.564 28.0979C205.729 28.0979 206.057 28.0979 206.222 28.2622C206.386 28.2622 206.715 28.4265 206.879 28.5909C207.043 28.7552 207.372 28.9195 207.536 29.0838C207.865 29.4125 208.029 29.7411 208.029 30.0697C208.029 30.3984 208.194 30.5627 208.194 30.8913H206.222Z" fill="#ECECEC"/>
<path d="M208.358 28.2619H209.673V26.6187L211.152 26.1257V28.2619H212.959V29.4121H211.152V34.1774C211.152 34.3417 211.152 34.3417 211.152 34.506C211.152 34.6703 211.152 34.6703 211.316 34.8347C211.316 34.999 211.48 34.999 211.645 35.1633C211.809 35.1633 211.973 35.3276 212.302 35.3276C212.466 35.3276 212.63 35.3276 212.795 35.3276C212.959 35.3276 212.959 35.3276 213.123 35.3276V36.1492C212.959 36.1492 212.795 36.1492 212.63 36.1492C212.466 36.1492 212.137 36.1492 211.973 36.1492C211.316 36.1492 210.823 35.9849 210.494 35.8206C210.166 35.6562 210.001 35.1633 210.001 34.506V29.2478H208.687V28.2619H208.358Z" fill="#ECECEC"/>
<path d="M214.764 24.9761H216.572V26.6193H214.764V24.9761ZM214.928 28.2625H216.407V36.1498H214.928V28.2625Z" fill="#ECECEC"/>
<path d="M218.544 32.3702C218.544 31.8772 218.544 31.3843 218.708 30.8913C218.873 30.3984 219.037 29.9054 219.366 29.5768C219.694 29.2481 220.023 28.9195 220.516 28.5908C221.009 28.2622 221.666 28.2622 222.488 28.2622C223.309 28.2622 223.967 28.4265 224.46 28.7552C224.953 29.0838 225.281 29.4124 225.61 29.7411C225.938 30.0697 226.103 30.5627 226.267 31.0556C226.431 31.5486 226.431 32.0415 226.431 32.3702C226.431 32.8631 226.431 33.5204 226.267 34.0134C226.103 34.5063 225.938 34.9993 225.61 35.3279C225.281 35.6566 224.788 35.9852 224.295 36.3138C223.802 36.4782 223.145 36.6425 222.488 36.6425C221.83 36.6425 221.337 36.4782 220.845 36.3138C220.352 36.1495 220.023 35.8209 219.694 35.4923C219.366 35.1636 219.201 34.6707 219.037 34.1777C218.708 33.3561 218.544 32.8631 218.544 32.3702ZM220.187 32.2059C220.187 32.5345 220.187 33.0275 220.352 33.3561C220.516 33.6847 220.516 34.0134 220.845 34.342C221.009 34.6707 221.337 34.835 221.502 34.9993C221.83 35.1636 222.159 35.3279 222.652 35.3279C222.981 35.3279 223.145 35.3279 223.474 35.1636C223.802 34.9993 223.967 34.835 224.295 34.6707C224.46 34.5063 224.624 34.1777 224.788 33.6847C224.953 33.3561 224.953 32.8631 224.953 32.2059C224.953 31.22 224.788 30.5627 224.295 29.9054C223.802 29.4124 223.309 29.0838 222.652 29.0838C222.488 29.0838 222.159 29.0838 221.83 29.2481C221.502 29.4124 221.337 29.4124 221.009 29.7411C220.68 29.9054 220.516 30.234 220.352 30.727C220.187 31.0556 220.187 31.5486 220.187 32.2059Z" fill="#ECECEC"/>
<path d="M228.734 29.2472V28.2612H230.213V29.5758C230.213 29.4115 230.378 29.4115 230.378 29.2472C230.542 29.0828 230.542 28.9185 230.871 28.7542C231.035 28.5899 231.363 28.4256 231.692 28.2612C232.021 28.0969 232.349 28.0969 232.842 28.0969C233.007 28.0969 233.335 28.0969 233.664 28.0969C233.993 28.0969 234.321 28.2612 234.65 28.4256C234.979 28.5899 235.307 28.9185 235.471 29.2472C235.636 29.5758 235.8 30.0688 235.8 30.726V36.1486H234.321V31.219C234.321 30.8904 234.321 30.726 234.321 30.5617C234.321 30.3974 234.157 30.0688 233.993 29.9044C233.828 29.7401 233.664 29.5758 233.335 29.5758C233.171 29.4115 232.842 29.4115 232.514 29.4115C232.185 29.4115 232.021 29.4115 231.692 29.5758C231.528 29.7401 231.199 29.7401 231.035 30.0688C230.871 30.2331 230.706 30.5617 230.542 30.726C230.378 31.0547 230.378 31.3833 230.378 31.7119V36.1486H228.899V29.2472H228.734Z" fill="#ECECEC"/>
<path d="M164.316 45.1895C164.316 45.0252 164.316 44.8608 164.152 44.6965C164.152 44.5322 163.987 44.2036 163.823 44.0392C163.659 43.8749 163.494 43.7106 163.166 43.382C162.837 43.2176 162.344 43.0533 161.851 43.0533C161.194 43.0533 160.701 43.2176 160.208 43.5463C159.715 43.8749 159.386 44.2036 159.222 44.6965C159.058 45.1895 158.893 45.6824 158.729 46.1754C158.729 46.6683 158.565 47.1613 158.565 47.6543C158.565 48.1472 158.565 48.6402 158.729 49.2975C158.893 49.7904 159.058 50.2834 159.222 50.7763C159.386 51.2693 159.715 51.5979 160.208 51.7622C160.537 52.0909 161.194 52.0909 161.851 52.0909C162.18 52.0909 162.508 52.0909 162.837 51.9266C163.166 51.7622 163.494 51.5979 163.659 51.4336C163.823 51.2693 163.987 50.9406 164.152 50.7763C164.152 50.612 164.316 50.4477 164.316 50.2834H165.959C165.959 50.7763 165.795 51.2693 165.466 51.7622C165.138 52.0909 164.809 52.4195 164.48 52.7482C164.152 53.0768 163.659 53.2411 163.166 53.2411C162.673 53.4054 162.18 53.4054 161.687 53.4054C160.701 53.4054 159.879 53.2411 159.222 52.7482C158.565 52.4195 158.072 51.9266 157.743 51.2693C157.415 50.612 157.086 50.1191 157.086 49.4618C156.922 48.8045 156.922 48.1472 156.922 47.6543C156.922 47.3256 156.922 46.8327 157.086 46.3397C157.086 45.8468 157.25 45.5181 157.415 45.0252C157.579 44.5322 157.743 44.2036 158.072 43.7106C158.236 43.382 158.565 42.889 159.058 42.7247C159.386 42.396 159.879 42.2317 160.372 42.0674C160.865 41.9031 161.523 41.7388 162.18 41.7388C162.508 41.7388 163.001 41.7388 163.494 41.9031C163.987 42.0674 164.316 42.2317 164.809 42.396C165.138 42.5604 165.466 42.889 165.795 43.382C166.124 43.8749 166.288 44.3679 166.288 45.0252H164.316V45.1895Z" fill="#ECECEC"/>
<path d="M167.441 49.6248C167.441 49.1319 167.441 48.6389 167.605 48.146C167.769 47.653 167.934 47.16 168.262 46.8314C168.591 46.5028 168.92 46.1741 169.413 45.8455C169.906 45.5168 170.563 45.5168 171.384 45.5168C172.206 45.5168 172.863 45.6812 173.356 46.0098C173.849 46.3384 174.178 46.6671 174.506 46.9957C174.835 47.3244 174.999 47.8173 175.164 48.3103C175.328 48.8032 175.328 49.2962 175.328 49.6248C175.328 50.1178 175.328 50.7751 175.164 51.268C174.999 51.761 174.835 52.2539 174.506 52.5826C174.178 52.9112 173.685 53.2398 173.192 53.5685C172.699 53.7328 172.042 53.8971 171.384 53.8971C170.727 53.8971 170.234 53.7328 169.741 53.5685C169.248 53.4042 168.92 53.0755 168.591 52.7469C168.262 52.4183 168.098 51.9253 167.934 51.4323C167.441 50.6107 167.441 50.1178 167.441 49.6248ZM168.92 49.4605C168.92 49.7891 168.92 50.2821 169.084 50.6107C169.248 50.9394 169.248 51.268 169.577 51.5967C169.741 51.9253 170.07 52.0896 170.234 52.2539C170.563 52.4183 170.891 52.5826 171.384 52.5826C171.713 52.5826 171.877 52.5826 172.206 52.4183C172.535 52.2539 172.699 52.0896 173.028 51.9253C173.192 51.761 173.356 51.4323 173.521 50.9394C173.685 50.6107 173.685 50.1178 173.685 49.4605C173.685 48.4746 173.521 47.8173 173.028 47.16C172.535 46.6671 172.042 46.3384 171.384 46.3384C171.22 46.3384 170.891 46.3384 170.563 46.5028C170.234 46.6671 170.07 46.6671 169.741 46.9957C169.413 47.16 169.248 47.4887 169.084 47.9816C169.084 48.3103 168.92 48.8032 168.92 49.4605Z" fill="#ECECEC"/>
<path d="M177.626 46.5035V45.5176H179.105V46.8321C179.105 46.6678 179.269 46.6678 179.269 46.5035C179.434 46.3392 179.434 46.1749 179.762 46.0105C179.927 45.8462 180.255 45.6819 180.584 45.5176C180.913 45.3533 181.241 45.3533 181.734 45.3533C181.898 45.3533 182.227 45.3533 182.556 45.3533C182.884 45.3533 183.213 45.5176 183.542 45.6819C183.87 45.8462 184.199 46.1749 184.363 46.5035C184.528 46.8321 184.692 47.3251 184.692 47.9824V53.2406H183.213V48.311C183.213 47.9824 183.213 47.8181 183.213 47.6537C183.213 47.4894 183.049 47.1608 182.884 46.9965C182.72 46.8321 182.556 46.6678 182.227 46.6678C182.063 46.5035 181.734 46.5035 181.406 46.5035C181.077 46.5035 180.913 46.5035 180.584 46.6678C180.42 46.8321 180.091 46.8321 179.927 47.1608C179.762 47.3251 179.598 47.6537 179.434 47.8181C179.269 48.1467 179.269 48.4753 179.269 48.804V53.2406H177.79V46.5035H177.626Z" fill="#ECECEC"/>
<path d="M185.84 45.5177H187.155V43.8746L188.634 43.3816V45.5177H190.441V46.668H188.634V51.4332C188.634 51.5976 188.634 51.5976 188.634 51.7619C188.634 51.9262 188.634 51.9262 188.798 52.0905C188.798 52.2548 188.963 52.2548 189.127 52.4192C189.291 52.4192 189.455 52.5835 189.784 52.5835C189.948 52.5835 190.113 52.5835 190.277 52.5835C190.441 52.5835 190.441 52.5835 190.606 52.5835V53.7337C190.441 53.7337 190.277 53.7337 190.113 53.7337C189.948 53.7337 189.62 53.7337 189.455 53.7337C188.798 53.7337 188.305 53.5694 187.977 53.4051C187.648 53.2407 187.484 52.7478 187.484 52.0905V46.8323H186.169V45.5177H185.84Z" fill="#ECECEC"/>
<path d="M192.417 47.1601C192.417 46.8314 192.417 46.6671 192.417 46.3385C192.417 46.0098 192.417 45.8455 192.417 45.5169H193.896V46.9957C193.896 46.6671 194.06 46.5028 194.224 46.3385C194.389 46.1741 194.553 46.0098 194.717 45.8455C194.882 45.6812 195.046 45.6812 195.21 45.5169C195.375 45.5169 195.539 45.3525 195.703 45.3525C195.867 45.3525 196.032 45.3525 196.36 45.3525C196.525 45.3525 196.689 45.3525 196.853 45.3525V46.8314C196.853 46.8314 196.689 46.8314 196.525 46.8314H196.36H196.196C195.703 46.8314 195.374 46.8314 195.046 46.9957C194.717 47.1601 194.553 47.3244 194.389 47.4887C194.224 47.653 194.06 47.9816 194.06 48.3103C194.06 48.6389 193.896 48.9676 193.896 49.2962V53.4042H192.417V47.1601Z" fill="#ECECEC"/>
<path d="M197.837 49.6248C197.837 49.1319 197.837 48.6389 198.001 48.146C198.166 47.653 198.33 47.16 198.659 46.8314C198.987 46.5028 199.316 46.1741 199.809 45.8455C200.302 45.5168 200.959 45.5168 201.781 45.5168C202.602 45.5168 203.26 45.6812 203.753 46.0098C204.246 46.3384 204.574 46.6671 204.903 46.9957C205.232 47.3244 205.396 47.8173 205.56 48.3103C205.724 48.8032 205.724 49.2962 205.724 49.6248C205.724 50.1178 205.724 50.7751 205.56 51.268C205.396 51.761 205.232 52.2539 204.903 52.5826C204.574 52.9112 204.081 53.2398 203.588 53.5685C203.095 53.7328 202.438 53.8971 201.781 53.8971C201.124 53.8971 200.631 53.7328 200.138 53.5685C199.645 53.4042 199.316 53.0755 198.987 52.7469C198.659 52.4183 198.494 51.9253 198.33 51.4323C197.837 50.6107 197.837 50.1178 197.837 49.6248ZM199.316 49.4605C199.316 49.7891 199.316 50.2821 199.48 50.6107C199.645 50.9394 199.645 51.268 199.973 51.5967C200.138 51.9253 200.466 52.0896 200.631 52.2539C200.959 52.4183 201.288 52.5826 201.781 52.5826C202.109 52.5826 202.274 52.5826 202.602 52.4183C202.931 52.2539 203.095 52.0896 203.424 51.9253C203.588 51.761 203.753 51.4323 203.917 50.9394C204.081 50.6107 204.081 50.1178 204.081 49.4605C204.081 48.4746 203.917 47.8173 203.424 47.16C202.931 46.6671 202.438 46.3384 201.781 46.3384C201.617 46.3384 201.288 46.3384 200.959 46.5028C200.631 46.6671 200.466 46.6671 200.138 46.9957C199.809 47.16 199.645 47.4887 199.48 47.9816C199.316 48.3103 199.316 48.8032 199.316 49.4605Z" fill="#ECECEC"/>
<path d="M207.863 42.0674H209.342V53.2411H207.863V42.0674Z" fill="#ECECEC"/>
<path d="M157.585 64.2471H164.651V65.5616H159.064V69.0123H164.322V70.3269H159.064V74.1062H164.651V75.5851H157.421V64.2471H157.585Z" fill="#ECECEC"/>
<path d="M167.279 64.2468H169.416L175.002 73.613V64.2468H176.481V75.5849H174.509L168.758 66.0543V75.5849H167.279V64.2468Z" fill="#ECECEC"/>
<path d="M186.336 66.547C186.172 66.7113 186.008 66.8756 185.843 67.04C185.679 67.2043 185.35 67.3686 185.186 67.5329C185.022 67.6972 184.693 67.8616 184.529 67.8616C184.364 68.0259 184.036 68.0259 183.872 68.1902V66.547C184.364 66.2184 184.857 66.054 185.35 65.7254C185.843 65.3968 186.172 65.0681 186.501 64.9038H187.815V75.5846H186.336V66.547Z" fill="#ECECEC"/>
<path d="M191.435 70.3266C191.435 69.998 191.435 69.6693 191.435 69.3407C191.435 69.0121 191.435 68.5191 191.599 68.1905C191.599 67.6975 191.763 67.3689 191.928 66.8759C192.092 66.383 192.256 66.0543 192.585 65.7257C192.914 65.397 193.242 65.0684 193.571 64.9041C193.9 64.7398 194.393 64.5754 195.05 64.5754C195.543 64.5754 196.036 64.7398 196.364 64.9041C196.693 65.0684 197.022 65.397 197.35 65.5614C197.679 65.89 197.843 66.2186 198.008 66.5473C198.172 66.8759 198.336 67.3689 198.336 67.6975C198.501 68.0261 198.501 68.5191 198.501 68.8477C198.501 69.1764 198.501 69.6693 198.501 69.998C198.501 71.3125 198.336 72.2984 198.172 73.12C197.843 73.9416 197.515 74.4346 197.022 74.9276C196.857 75.0919 196.693 75.2562 196.364 75.4205C196.2 75.5848 196.036 75.5848 195.707 75.7491C195.543 75.7491 195.378 75.9135 195.214 75.9135C195.05 75.9135 194.886 75.9135 194.721 75.9135C194.393 75.9135 194.064 75.9135 193.735 75.7491C193.407 75.5848 193.242 75.5848 192.914 75.4205C192.749 75.2562 192.421 75.0919 192.256 74.9276C192.092 74.7632 191.928 74.4346 191.763 74.2703C191.599 73.9416 191.435 73.4487 191.271 72.9557C191.599 71.9698 191.435 71.3125 191.435 70.3266ZM193.078 70.1623C193.078 70.8196 193.078 71.3125 193.242 71.8055C193.242 72.2984 193.407 72.7914 193.571 73.12C193.735 73.4487 193.9 73.7773 194.228 73.9416C194.557 74.106 194.886 74.2703 195.214 74.2703C195.707 74.2703 196.036 74.106 196.364 73.9416C196.693 73.613 196.857 73.2844 197.022 72.9557C197.186 72.4628 197.35 72.1341 197.35 71.6412C197.35 71.1482 197.35 70.6553 197.35 70.1623C197.35 69.505 197.35 68.8477 197.186 68.3548C197.186 67.8618 197.022 67.3689 196.857 67.0402C196.693 66.7116 196.529 66.383 196.2 66.2186C195.871 66.0543 195.543 65.89 195.214 65.89C194.721 65.89 194.393 66.0543 194.064 66.383C193.735 66.7116 193.571 67.0402 193.407 67.3689C193.242 67.8618 193.242 68.1905 193.078 68.8477C193.078 69.1764 193.078 69.6693 193.078 70.1623Z" fill="#ECECEC"/>
<path d="M201.784 72.9558C201.784 73.4487 201.948 73.7773 202.113 74.106C202.441 74.4346 202.77 74.5989 203.427 74.5989C204.084 74.5989 204.413 74.4346 204.742 74.106C205.07 73.7773 205.235 73.4487 205.399 72.9558C205.563 72.4628 205.563 71.9698 205.563 71.4769C205.563 70.9839 205.563 70.491 205.563 69.998C205.399 70.3266 205.235 70.491 205.07 70.6553C204.906 70.8196 204.742 70.9839 204.413 71.1482C204.249 71.3126 203.92 71.3126 203.756 71.3126C203.591 71.3126 203.263 71.3126 203.099 71.3126C202.606 71.3126 202.277 71.3126 201.784 71.1482C201.455 70.9839 200.962 70.8196 200.798 70.491C200.469 70.1623 200.305 69.8337 200.141 69.3407C199.976 68.8478 199.812 68.3548 199.812 67.8619C199.812 67.2046 199.976 66.7116 200.141 66.2187C200.305 65.7257 200.634 65.3971 200.962 65.0684C201.291 64.7398 201.62 64.5755 202.113 64.4111C202.441 64.2468 202.934 64.2468 203.427 64.2468C203.756 64.2468 204.084 64.2468 204.413 64.4111C204.742 64.4111 205.07 64.5755 205.399 64.7398C205.728 64.9041 206.056 65.2327 206.221 65.5614C206.549 65.89 206.714 66.383 206.878 66.8759C207.042 67.2046 207.042 67.5332 207.042 68.0262C207.042 68.5191 207.207 69.0121 207.207 69.8337C207.207 70.1623 207.207 70.491 207.207 70.8196C207.207 71.1482 207.207 71.6412 207.042 71.9698C207.042 72.4628 206.878 72.7914 206.714 73.2844C206.549 73.7773 206.385 74.106 206.056 74.4346C205.728 74.7633 205.399 75.0919 204.906 75.2562C204.413 75.4205 203.92 75.5849 203.263 75.5849C202.934 75.5849 202.606 75.5849 202.113 75.4205C201.784 75.2562 201.455 75.2562 201.127 74.9276C200.798 74.7633 200.634 74.4346 200.305 74.106C200.141 73.7773 199.976 73.2844 199.976 72.7914H201.784V72.9558ZM205.728 68.0262C205.728 67.6975 205.728 67.3689 205.563 67.0403C205.399 66.7116 205.235 66.5473 205.07 66.383C204.906 66.2187 204.577 66.0543 204.413 65.89C204.084 65.7257 203.92 65.7257 203.591 65.7257C203.263 65.7257 202.934 65.7257 202.77 65.89C202.606 66.0543 202.277 66.2187 202.113 66.383C201.948 66.5473 201.784 66.8759 201.784 67.0403C201.62 67.3689 201.62 67.6975 201.62 68.0262C201.62 68.6835 201.784 69.3407 202.277 69.6694C202.606 69.998 203.099 70.3266 203.756 70.3266C204.413 70.3266 204.906 70.1623 205.235 69.6694C205.563 69.3407 205.728 68.6835 205.728 68.0262Z" fill="#ECECEC"/>
<path d="M208.85 70.3266C208.85 69.998 208.85 69.6693 208.85 69.3407C208.85 69.0121 208.85 68.5191 209.015 68.1905C209.015 67.6975 209.179 67.3689 209.343 66.8759C209.508 66.383 209.672 66.0543 210.001 65.7257C210.329 65.397 210.658 65.0684 210.987 64.9041C211.315 64.7398 211.808 64.5754 212.466 64.5754C212.958 64.5754 213.451 64.7398 213.78 64.9041C214.109 65.0684 214.437 65.397 214.766 65.5614C215.095 65.89 215.259 66.2186 215.423 66.5473C215.588 66.8759 215.752 67.3689 215.752 67.6975C215.916 68.0261 215.916 68.5191 215.916 68.8477C215.916 69.1764 215.916 69.6693 215.916 69.998C215.916 71.3125 215.752 72.2984 215.588 73.12C215.259 73.9416 214.93 74.4346 214.437 74.9276C214.273 75.0919 214.109 75.2562 213.78 75.4205C213.616 75.5848 213.451 75.5848 213.123 75.7491C212.958 75.7491 212.794 75.9135 212.63 75.9135C212.465 75.9135 212.301 75.9135 212.137 75.9135C211.808 75.9135 211.48 75.9135 211.151 75.7491C210.822 75.5848 210.658 75.5848 210.329 75.4205C210.165 75.2562 209.836 75.0919 209.672 74.9276C209.508 74.7632 209.343 74.4346 209.179 74.2703C209.015 73.9416 208.85 73.4487 208.686 72.9557C209.015 71.9698 208.85 71.3125 208.85 70.3266ZM210.329 70.1623C210.329 70.8196 210.329 71.3125 210.494 71.8055C210.658 72.2984 210.658 72.7914 210.822 73.12C210.987 73.4487 211.151 73.7773 211.48 73.9416C211.808 74.106 212.137 74.2703 212.466 74.2703C212.958 74.2703 213.287 74.106 213.616 73.9416C213.944 73.613 214.109 73.2844 214.273 72.9557C214.437 72.4628 214.602 72.1341 214.602 71.6412C214.602 71.1482 214.602 70.6553 214.602 70.1623C214.602 69.505 214.602 68.8477 214.437 68.3548C214.273 67.8618 214.273 67.3689 214.109 67.0402C213.944 66.7116 213.78 66.383 213.451 66.2186C213.123 66.0543 212.794 65.89 212.466 65.89C211.973 65.89 211.644 66.0543 211.315 66.383C210.987 66.7116 210.822 67.0402 210.658 67.3689C210.494 67.8618 210.494 68.1905 210.329 68.8477C210.329 69.1764 210.329 69.6693 210.329 70.1623Z" fill="#ECECEC"/>
<path d="M217.557 70.8215H221.501V71.9718H217.557V70.8215Z" fill="#ECECEC"/>
<path d="M226.272 66.547C226.108 66.7113 225.943 66.8756 225.779 67.04C225.615 67.2043 225.286 67.3686 225.122 67.5329C224.957 67.6972 224.629 67.8616 224.464 67.8616C224.3 68.0259 223.971 68.0259 223.807 68.1902V66.547C224.3 66.2184 224.793 66.054 225.286 65.7254C225.779 65.3968 226.108 65.0681 226.436 64.9038H227.751V75.5846H226.272V66.547Z" fill="#ECECEC"/>
<path d="M20.0469 0C9.03756 0 0 9.03756 0 20.0469V120.117C0 131.291 9.03756 140.164 20.0469 140.164H280V0H20.0469ZM20.0469 135.563C11.5023 135.563 4.60094 128.662 4.60094 120.117V20.0469C4.60094 11.5023 11.5023 4.60094 20.0469 4.60094H120.117C128.662 4.60094 135.563 11.5023 135.563 20.0469V120.117C135.563 128.662 128.662 135.563 120.117 135.563H20.0469ZM279.343 104.836H157.089V105.657H279.343V139.507H124.225C133.263 137.7 140 129.648 140 120.117V20.0469C140 10.5164 133.263 2.62911 124.225 0.821596H279.343V104.836Z" fill="#ECECEC"/>
<path d="M82.4845 85.7717H80.677V87.4149H82.4845V85.7717Z" fill="#ECECEC"/>
<path d="M37.3006 85.2793V92.345C37.3006 95.3028 35.1645 96.7817 32.371 96.7817C29.5776 96.7817 27.4415 95.3028 27.4415 92.345V85.2793H29.9063V91.5235C29.9063 93.4953 30.0706 95.1385 32.371 95.1385C34.6715 95.1385 34.8358 93.331 34.8358 91.5235V85.2793H37.3006ZM30.2349 81.8286H31.8781V83.6361H30.2349V81.8286ZM32.864 81.8286H34.5072V83.6361H32.864V81.8286Z" fill="#ECECEC"/>
<path d="M39.106 85.2791H41.7351L44.6928 94.3166L47.6506 85.2791H50.1153L45.843 96.6171H43.2139L39.106 85.2791Z" fill="#ECECEC"/>
<path d="M53.7313 91.5232V96.6171H52.0881V85.2791H56.1961C58.1679 85.2791 60.1397 85.9363 60.1397 88.0725C60.1397 89.387 59.3181 90.5373 58.0036 90.8659C59.3181 91.1945 59.6468 91.8518 59.8111 93.1664C59.9754 94.3166 60.1397 95.4668 60.4684 96.6171H58.8252C58.6608 95.9598 58.4965 95.1382 58.4965 94.4809C58.3322 93.495 58.3322 92.5091 57.8392 92.0161C57.3463 91.5232 56.689 91.5232 56.1961 91.5232H53.7313ZM53.7313 90.2086H56.3604C58.1679 90.2086 58.4965 89.387 58.4965 88.4011C58.4965 87.5795 58.1679 86.7579 56.3604 86.5936H53.7313V90.2086Z" fill="#ECECEC"/>
<path d="M62.77 96.6171V85.2791H64.2489V89.88C64.7418 89.0584 65.7278 88.5654 66.878 88.5654C69.0142 88.5654 69.6714 89.88 69.6714 91.3589V96.7814H68.1926V92.0161C68.1926 90.7016 67.8639 89.7157 66.385 89.7157C65.7278 89.7157 64.9062 90.2086 64.5775 90.8659C64.2489 91.6875 64.2489 92.1805 64.2489 92.6734V96.7814H62.77V96.6171Z" fill="#ECECEC"/>
<path d="M73.1202 93.0018C72.9559 94.3164 73.6132 95.7952 75.0921 95.7952C76.2423 95.7952 76.8996 95.3023 77.0639 94.1521H78.7071C78.5428 95.9596 77.0639 96.7812 75.2564 96.7812C72.7916 96.7812 71.6414 94.9737 71.6414 92.6732C71.6414 90.3727 72.7916 88.4009 75.2564 88.4009C77.5569 88.4009 78.7071 89.8798 78.7071 92.1802V93.0018H73.1202ZM77.0639 92.0159C77.0639 90.7013 76.5709 89.7154 75.0921 89.7154C73.7775 89.7154 73.1202 90.7013 73.1202 92.0159H77.0639Z" fill="#ECECEC"/>
<path d="M82.1559 88.7295H80.677V96.6168H82.1559V88.7295Z" fill="#ECECEC"/>
<path d="M86.2652 89.8798C86.7581 88.8938 87.9084 88.4009 88.73 88.4009C89.2229 88.4009 91.6877 88.5652 91.6877 91.03V96.4525H90.2089V91.5229C90.2089 90.2084 89.7159 89.5511 88.4013 89.5511C88.4013 89.5511 87.5797 89.5511 86.9225 90.2084C86.7582 90.3727 86.2652 90.7014 86.2652 92.3445V96.6168H84.7863V88.7295H86.2652V89.8798Z" fill="#ECECEC"/>
<path d="M95.7987 85.2795H94.3198V96.6176H95.7987V85.2795Z" fill="#ECECEC"/>
<path d="M103.028 91.8516C103.028 90.537 103.028 89.7154 101.385 89.7154C100.563 89.7154 99.9062 90.2084 99.9062 91.03H98.263C98.263 89.2225 99.7418 88.7295 101.221 88.7295C102.864 88.7295 104.507 89.2224 104.507 91.3586V95.1379C104.507 95.4666 104.507 96.1239 104.507 96.7811H103.521C103.357 96.7811 103.193 96.7811 103.028 96.6168C103.028 96.2882 103.028 95.9595 103.028 95.4666C102.535 96.4525 101.714 96.9455 100.563 96.9455C99.2489 96.9455 97.77 96.2882 97.77 94.645C97.77 92.3445 99.7418 91.8516 101.549 91.8516H103.028ZM101.549 92.8375C100.563 92.8375 99.4132 93.1661 99.4132 94.3163C99.4132 95.3023 100.07 95.7952 101.056 95.7952C102.864 95.7952 103.193 94.3163 103.193 92.8375H101.549Z" fill="#ECECEC"/>
<path d="M108.449 90.0441C108.942 89.0581 110.092 88.5652 110.914 88.5652C111.407 88.5652 113.871 88.7295 113.871 91.1943V96.6168H112.392V91.6872C112.392 90.3727 111.899 89.7154 110.585 89.7154C110.585 89.7154 109.763 89.7154 109.106 90.3727C108.942 90.537 108.449 90.8657 108.449 92.5088V96.7811H106.97V88.8938H108.449V90.0441Z" fill="#ECECEC"/>
<path d="M121.762 85.2791H123.241V95.3025C123.241 95.7955 123.241 96.2884 123.241 96.7814H121.762V95.6312C121.269 96.7814 120.119 97.11 118.969 97.11C116.668 97.11 115.682 94.9739 115.682 92.8377C115.682 90.7016 116.832 88.5654 119.297 88.5654C120.283 88.5654 121.269 88.8941 121.762 89.88V85.2791ZM119.626 95.9598C121.433 95.9598 121.926 94.3166 121.926 92.8377C121.926 91.3589 121.433 89.7157 119.626 89.7157C117.818 89.7157 117.325 91.3589 117.325 92.8377C117.325 94.3166 117.983 95.9598 119.626 95.9598Z" fill="#ECECEC"/>
<path d="M16.4288 85.2791H25.6307V87.2509H22.18V96.6171H19.7152V87.2509H16.4288V85.2791Z" fill="#ECECEC"/>
<path d="M116.504 79.3658C116.504 81.6663 114.697 83.4738 112.396 83.4738C110.096 83.4738 108.288 81.6663 108.288 79.3658C108.288 77.0654 110.096 75.2578 112.396 75.2578C114.697 75.4222 116.504 77.2297 116.504 79.3658ZM112.396 74.7649C109.767 74.7649 107.795 76.901 107.795 79.3658C107.795 81.9949 109.932 83.9668 112.396 83.9668C115.025 83.9668 116.997 81.8306 116.997 79.3658C117.162 76.901 115.025 74.7649 112.396 74.7649Z" fill="#ECECEC"/>
<path d="M111.578 79.531V81.8314H110.921V76.9019H112.728C113.55 76.9019 114.371 77.2305 114.371 78.2164C114.371 78.8737 114.043 79.2023 113.385 79.3666C114.043 79.531 114.043 79.8596 114.207 80.3526C114.207 80.8455 114.371 81.3385 114.536 81.8314H113.714C113.714 81.5028 113.55 81.1742 113.55 80.8455C113.55 80.3526 113.55 80.0239 113.221 79.6953C113.057 79.531 112.728 79.531 112.399 79.531H111.578ZM111.578 79.038H112.728C113.55 79.038 113.714 78.7094 113.714 78.2164C113.714 77.8878 113.55 77.3948 112.728 77.3948H111.578V79.038Z" fill="#ECECEC"/>
<path d="M98.0996 120.118H100.564L99.4142 116.667L98.0996 120.118Z" fill="#ECECEC"/>
<path d="M81.3367 117.488C81.1724 116.995 80.8437 116.667 80.5151 116.338C80.1864 116.174 79.8578 116.009 79.3648 116.009C79.0362 116.009 78.7076 116.009 78.5433 116.174C78.2146 116.338 78.0503 116.502 77.886 116.667C77.7217 116.995 77.5573 117.324 77.393 117.652C77.2287 117.981 77.2287 118.474 77.2287 118.967C77.2287 119.296 77.2287 119.789 77.393 120.117C77.393 120.446 77.5573 120.939 77.886 121.268C78.0503 121.432 78.2146 121.596 78.3789 121.76C78.5433 121.925 78.8719 121.925 79.3648 121.925C80.0221 121.925 80.5151 121.596 80.8437 121.103C80.8437 120.939 81.008 120.939 81.008 120.775C81.008 120.61 81.1724 120.446 81.1724 120.282C81.1724 120.117 81.3367 119.953 81.3367 119.624C81.3367 119.46 81.3367 119.131 81.3367 118.803C81.3367 118.638 81.3367 118.31 81.3367 118.145C81.501 117.981 81.501 117.817 81.3367 117.488Z" fill="#ECECEC"/>
<path d="M38.6144 116.503C38.4501 116.338 38.2857 116.338 38.1214 116.338C37.9571 116.338 37.7928 116.338 37.4641 116.338H36.3139V118.639H37.7928C37.9571 118.639 37.9571 118.639 38.2857 118.639C38.4501 118.639 38.6144 118.475 38.7787 118.475C38.7787 118.475 38.7787 118.475 38.943 118.31L39.1073 118.146C39.1073 118.146 39.2716 117.982 39.2716 117.817C39.2716 117.653 39.2716 117.653 39.2716 117.489C39.2716 117.16 39.2716 116.996 39.1073 116.831C38.7787 116.667 38.6144 116.503 38.6144 116.503Z" fill="#ECECEC"/>
<path d="M120.937 7.88599H19.3882C12.9797 7.88599 7.8858 12.9799 7.8858 19.3883V120.938C7.8858 127.346 12.9797 132.44 19.3882 132.44H120.937C127.346 132.44 132.44 127.346 132.44 120.938V19.3883C132.44 12.9799 127.346 7.88599 120.937 7.88599ZM25.6323 120.938C25.6323 121.102 25.6323 121.266 25.468 121.431C25.468 121.595 25.3036 121.759 25.3036 121.924C25.1393 122.088 25.1393 122.252 24.975 122.417C24.8107 122.581 24.6464 122.745 24.3177 122.909C24.1534 123.074 23.8248 123.074 23.6605 123.238C23.4961 123.238 23.1675 123.402 23.0032 123.402C22.8389 123.402 22.5102 123.402 22.3459 123.402C21.6886 123.402 21.0313 123.238 20.5384 123.074C20.0454 122.909 19.7168 122.581 19.3882 122.088C19.0595 121.759 18.8952 121.266 18.7309 120.773C18.5666 120.28 18.5666 119.787 18.5666 119.294C18.5666 118.637 18.7309 118.144 18.8952 117.487C19.0595 116.994 19.3882 116.501 19.7168 116.172C20.0454 115.844 20.3741 115.515 20.867 115.351C21.36 115.186 21.8529 115.022 22.3459 115.022C22.8389 115.022 23.1675 115.022 23.4961 115.186C23.8248 115.351 24.1534 115.515 24.482 115.679C24.8107 115.844 24.975 116.172 25.1393 116.501C25.3036 116.83 25.3036 117.158 25.3036 117.651H23.4961C23.4961 117.651 23.4961 117.487 23.4961 117.323C23.4961 117.158 23.3318 116.994 23.3318 116.83C23.1675 116.665 23.1675 116.501 23.0032 116.337C22.8389 116.172 22.6745 116.172 22.3459 116.172C22.0173 116.172 21.6886 116.172 21.5243 116.337C21.36 116.501 21.0313 116.665 21.0313 116.994C20.867 117.323 20.7027 117.651 20.7027 117.98C20.7027 118.309 20.5384 118.801 20.5384 119.13C20.5384 119.459 20.5384 119.787 20.5384 120.28C20.5384 120.609 20.7027 120.938 20.867 121.266C21.0313 121.595 21.1957 121.759 21.36 121.924C21.5243 122.088 21.8529 122.088 22.1816 122.088C22.3459 122.088 22.5102 122.088 22.6745 121.924C22.8389 121.924 23.0032 121.759 23.1675 121.595C23.3318 121.431 23.3318 121.266 23.4961 121.102C23.6605 120.938 23.6605 120.609 23.6605 120.445H25.468C25.7966 120.609 25.6323 120.773 25.6323 120.938ZM32.8623 123.074H27.2755V115.022H32.698V116.337H29.083V118.309H32.5337V119.623H29.083V121.759H32.8623V123.074ZM39.1065 123.074C39.1065 122.909 39.1065 122.745 38.9421 122.417C38.9421 122.088 38.9421 121.924 38.7778 121.595C38.7778 121.266 38.6135 120.938 38.6135 120.773C38.6135 120.445 38.6135 120.28 38.4492 120.28C38.4492 120.116 38.2849 120.116 38.2849 119.952L38.1206 119.787C38.1206 119.787 37.9562 119.787 37.7919 119.787C37.6276 119.787 37.6276 119.787 37.6276 119.787H36.1487V123.074H34.5055V115.022H37.6276C37.7919 115.022 38.1206 115.022 38.2849 115.022C38.4492 115.022 38.7778 115.022 38.9421 115.022C39.1065 115.022 39.4351 115.186 39.5994 115.186C39.7637 115.186 39.9281 115.351 40.0924 115.515C40.421 115.679 40.5853 116.008 40.5853 116.337C40.7497 116.665 40.7497 116.83 40.7497 117.158C40.7497 117.487 40.7497 117.816 40.5853 118.144C40.421 118.309 40.2567 118.637 40.0924 118.801C39.9281 118.966 39.7637 119.13 39.5994 119.13C39.4351 119.13 39.2708 119.294 39.1065 119.294C39.4351 119.294 39.5994 119.459 39.7637 119.459C39.9281 119.623 40.0924 119.623 40.0924 119.787C40.2567 119.952 40.2567 120.116 40.2567 120.28C40.2567 120.445 40.2567 120.773 40.421 120.938C40.421 121.431 40.5853 121.759 40.5853 121.924C40.5853 122.088 40.5853 122.252 40.7497 122.417C40.7497 122.581 40.914 122.745 40.914 122.745C40.914 122.745 40.914 122.909 41.0783 122.909H39.1065V123.074ZM48.4727 116.337H46.0079V123.074H44.3647V116.337H41.8999V115.022H48.4727V116.337ZM54.0595 120.116V123.074H52.4163V120.116L49.4586 115.022H51.4304L53.0736 118.801L54.7168 115.022H56.5243L54.0595 120.116ZM63.2614 116.337H59.8107V118.309H63.0971V119.623H59.8107V123.074H58.0032V115.022H63.2614V116.337ZM66.3835 123.074H64.576V115.022H66.3835V123.074ZM72.9562 123.074L70.1628 118.966V123.074H68.3553V115.022H70.1628V118.473L72.9562 115.022H74.9281L71.9703 118.637L75.2567 123.074H72.9562ZM83.3084 119.952C83.3084 120.28 83.144 120.609 83.144 120.773C82.9797 121.102 82.9797 121.266 82.8154 121.595C82.6511 121.759 82.4868 122.088 82.3224 122.252C82.1581 122.581 81.8295 122.745 81.6652 122.909C81.3365 123.074 81.1722 123.238 80.8436 123.238C80.6792 123.238 80.3506 123.238 80.1863 123.238C80.022 123.238 79.6933 123.238 79.529 123.238C79.0361 123.238 78.5431 123.074 77.8858 122.909C77.3929 122.745 76.8999 122.417 76.5713 122.088C76.4069 121.924 76.2426 121.595 76.0783 121.266C75.914 120.938 75.914 120.773 75.7497 120.445C75.7497 120.116 75.5854 119.952 75.5854 119.623C75.5854 119.294 75.5854 119.13 75.5854 118.966C75.5854 118.473 75.5853 117.816 75.7497 117.323C75.914 116.83 76.0783 116.337 76.4069 116.008C76.7356 115.679 77.0642 115.351 77.5572 115.022C78.0501 114.694 78.7074 114.694 79.3647 114.694C79.529 114.694 79.8577 114.694 80.022 114.694C80.3506 114.694 80.5149 114.858 80.8436 114.858C81.1722 115.022 81.3365 115.022 81.6652 115.186C81.8295 115.351 82.1581 115.515 82.3224 115.679C82.4868 116.008 82.6511 116.172 82.8154 116.501C82.9797 116.83 82.9797 116.994 83.144 117.323C83.144 117.651 83.3084 117.816 83.3084 118.144C83.3084 118.473 83.3084 118.637 83.3084 118.801C83.4727 119.294 83.3084 119.623 83.3084 119.952ZM93.1675 123.074H91.1957L89.7168 116.83L88.0736 123.074H86.1018L84.2943 115.022H86.1018L87.4163 121.102L89.0595 115.022H91.0314L92.5102 121.102L93.6605 115.022H95.3037L93.1675 123.074ZM101.548 123.074L100.891 121.266H97.6041L96.9469 123.074H95.3037L98.2614 115.022H100.398L103.191 123.074H101.548ZM111.736 123.074H109.271L106.149 116.337V123.074H104.506V115.022H106.97L110.092 121.431V115.022H111.736V123.074ZM121.102 119.952C121.102 120.28 120.937 120.609 120.937 120.773C120.773 121.102 120.773 121.266 120.609 121.595C120.445 121.759 120.28 122.088 120.116 122.252C119.952 122.581 119.623 122.745 119.459 122.909C119.13 123.074 118.966 123.238 118.637 123.238C118.473 123.238 118.144 123.238 117.98 123.238C117.815 123.238 117.487 123.238 117.322 123.238C116.829 123.238 116.337 123.074 115.679 122.909C115.186 122.745 114.693 122.417 114.365 122.088C114.2 121.924 114.036 121.595 113.872 121.266C113.707 120.938 113.707 120.773 113.543 120.445C113.543 120.116 113.379 119.952 113.379 119.623C113.379 119.294 113.379 119.13 113.379 118.966C113.379 118.473 113.379 117.816 113.543 117.323C113.707 116.83 113.872 116.337 114.2 116.008C114.529 115.679 114.858 115.351 115.351 115.022C115.844 114.694 116.501 114.694 117.158 114.694C117.322 114.694 117.651 114.694 117.815 114.694C118.144 114.694 118.308 114.858 118.637 114.858C118.966 115.022 119.13 115.022 119.459 115.186C119.623 115.351 119.952 115.515 120.116 115.679C120.28 116.008 120.445 116.172 120.609 116.501C120.773 116.83 120.773 116.994 120.937 117.323C120.937 117.651 121.102 117.816 121.102 118.144C121.102 118.473 121.102 118.637 121.102 118.801C121.266 119.294 121.266 119.623 121.102 119.952ZM131.618 105.492H8.7074V19.3883C8.7074 13.4728 13.4727 8.70758 19.3882 8.70758H120.937C126.853 8.70758 131.618 13.4728 131.618 19.3883V105.492Z" fill="#ECECEC"/>
<path d="M119.13 117.488C118.966 116.995 118.637 116.667 118.308 116.338C117.98 116.174 117.651 116.009 117.158 116.009C116.829 116.009 116.501 116.009 116.337 116.174C116.008 116.338 115.844 116.502 115.679 116.667C115.515 116.995 115.351 117.324 115.186 117.652C115.022 117.981 115.022 118.474 115.022 118.967C115.022 119.296 115.022 119.789 115.186 120.117C115.186 120.446 115.351 120.939 115.679 121.268C115.844 121.432 116.008 121.596 116.172 121.76C116.337 121.925 116.665 121.925 117.158 121.925C117.815 121.925 118.308 121.596 118.637 121.103C118.637 120.939 118.801 120.939 118.801 120.775C118.801 120.61 118.966 120.446 118.966 120.282C118.966 120.117 119.13 119.953 119.13 119.624C119.13 119.46 119.13 119.131 119.13 118.803C119.13 118.638 119.13 118.31 119.13 118.145C119.294 117.981 119.294 117.817 119.13 117.488Z" fill="#ECECEC"/>
<path d="M38.4509 71.315C43.5448 72.6296 48.803 73.2868 54.2256 73.2868C59.6481 73.2868 65.0706 72.6296 70.0002 71.315C75.0941 70.0005 80.3523 69.3432 85.7749 69.3432C91.1974 69.3432 96.4556 70.0005 101.55 71.315L101.221 70.6577L97.2772 63.9206C93.4979 63.2634 89.7185 62.9347 85.7749 62.9347C80.3523 62.9347 75.0941 63.592 70.0002 64.9066C65.0706 66.2211 59.6481 66.8784 54.2256 66.8784C52.2537 66.8784 50.4462 66.8784 48.4744 66.5498L70.0002 29.4136L82.9815 51.9253C78.5448 52.0897 74.2725 52.7469 70.0002 53.8972C67.0425 54.7188 63.7561 55.2117 60.634 55.5404L56.6904 62.2775C61.2913 62.1131 65.7279 61.4559 70.0002 60.3056C75.0941 58.9911 80.3523 58.3338 85.7749 58.3338C88.7326 58.3338 91.5261 58.4981 94.3195 58.8267L90.3758 51.5967L79.6951 33.1929L70.0002 16.4324L38.4509 71.315Z" fill="#ECECEC"/>
</svg>
