<svg width="100" height="100" viewBox="0 0 100 100" fill="none" xmlns="http://www.w3.org/2000/svg">
<g clip-path="url(#clip0_48_142)">
<path d="M48 79.6771C48 72.6923 48 65.7016 48 50C48 34.2984 48 27.3077 48 20.3229V0C21.3333 1.05791 0 22.9955 0 50C0 77.0045 21.3333 98.9421 48 100V79.6771Z" fill="#146EBE"/>
<path d="M52 0V20.3229C67.3889 21.4922 79.5555 34.2984 79.5555 50C79.5555 65.7016 67.3889 78.5635 52 79.6771V100C78.6667 98.9421 100 77.0045 100 50C100 22.9955 78.6667 1.05791 52 0Z" fill="#ECECEC"/>
</g>
<defs>
<clipPath id="clip0_48_142">
<rect width="100" height="100" fill="white"/>
</clipPath>
</defs>
</svg>
